<svg width="73" height="70" viewBox="0 0 73 70" fill="none" xmlns="http://www.w3.org/2000/svg">
<path d="M42.4909 17.4087C42.8348 16.8163 43.2361 16.2622 43.5992 15.6889C44.0578 14.9437 44.6693 14.294 45.1852 13.6061C45.7394 12.9182 46.37 12.3067 46.9624 11.657L48.8924 9.82259C50.23 8.63787 51.5868 7.47226 52.9626 6.32575L53.0964 6.21109L53.1155 6.05823C53.2684 4.4149 53.4021 2.77156 53.5932 1.14734C53.6123 0.956253 53.4786 0.803395 53.2875 0.784286C53.0964 0.765178 52.9435 0.89893 52.9244 1.09001C52.7524 2.67602 52.5231 4.24292 52.3129 5.80981C50.918 6.86078 49.5421 7.91175 48.1663 9.02004L46.0834 10.7971C45.4337 11.4468 44.7457 12.0583 44.1342 12.7271C43.5419 13.4341 42.873 14.0838 42.3571 14.829C41.8411 15.5551 41.287 16.2239 40.8284 17.0074C41.3443 17.0838 41.8985 17.2176 42.4909 17.4087Z" fill="#FDFFFC"/>
<path d="M20.6875 6.21044L20.8213 6.3251C22.1971 7.47161 23.573 8.63721 24.8915 9.82194L26.8215 11.6564C27.4139 12.306 28.0445 12.9175 28.5987 13.6054C29.1146 14.3124 29.7261 14.943 30.1847 15.6882C30.5669 16.2806 30.9682 16.8539 31.3313 17.4653C31.9045 17.2743 32.4587 17.1214 32.9555 17.0067C32.4969 16.2233 31.9237 15.5354 31.4077 14.7902C30.8918 14.0258 30.2229 13.3952 29.6306 12.6882C29.0191 12.0003 28.3311 11.408 27.6814 10.7583L25.5985 8.98118C24.2227 7.89199 22.8468 6.82192 21.4519 5.77095C21.2417 4.20405 21.0124 2.61805 20.8404 1.05115C20.8213 0.860065 20.6493 0.745411 20.4582 0.76452C20.2671 0.783628 20.1334 0.955599 20.1716 1.14668C20.3818 2.77091 20.4964 4.41425 20.6493 6.05758L20.6875 6.21044Z" fill="#FDFFFC"/>
<path d="M16.9421 18.5928L17.7446 22.9113C17.7828 23.1597 17.9357 23.389 18.1841 23.5228L18.2415 23.561L23.1907 26.4464C23.8786 25.8349 24.5666 25.3381 25.2354 24.9177L19.5409 22.0323L18.5663 18.096L18.5472 18.0386C18.5281 17.9622 18.4899 17.8858 18.4517 17.8093L16.8083 15.4208C16.579 15.0959 16.1586 15.0004 15.8146 15.2106C15.4706 15.4208 15.356 15.8794 15.5662 16.2233L16.9421 18.5928Z" fill="#FDFFFC"/>
<path d="M50.8227 26.4663L55.7719 23.5809L55.8293 23.5427C56.0395 23.4089 56.2115 23.1987 56.2688 22.9312L57.0714 18.6127L58.4663 16.2815C58.6574 15.9375 58.581 15.5171 58.2561 15.2878C57.9121 15.0585 57.4535 15.1349 57.2242 15.4789L55.5809 17.8675C55.5426 17.9248 55.5044 18.0203 55.4853 18.0968L55.4662 18.1541L54.4916 22.0904L48.7971 24.9758C49.4468 25.3389 50.1539 25.8548 50.8227 26.4663Z" fill="#FDFFFC"/>
<path d="M62.1159 42.9184L62.0586 42.8801L55.3513 38.3896C55.4469 39.5744 55.5042 40.7782 55.5233 42.0012L59.9948 44.6572L58.1412 61.8931V61.9504C58.1221 62.1415 58.1795 62.3517 58.3132 62.5046L61.2751 65.753C61.4853 65.9823 61.8484 66.0205 62.0968 65.8103C62.3643 65.6001 62.4026 65.218 62.1924 64.9504L59.6891 61.7976L62.6128 44.1604C62.7274 43.6827 62.5363 43.1859 62.1159 42.9184Z" fill="#FDFFFC"/>
<path d="M72.1677 30.6508L68.6707 31.9119L59.2309 27.9756C58.9633 27.8609 58.6385 27.8609 58.3518 27.9947L58.2372 28.052L53.6128 30.154C54.0332 30.9947 54.358 31.9693 54.6065 33.0393L58.9633 30.4979L68.4032 33.3642L68.4414 33.3833C68.5752 33.4215 68.7281 33.4215 68.8809 33.3642L72.5881 31.8928C72.913 31.759 73.0849 31.396 72.9512 31.0712C72.8747 30.7081 72.4926 30.517 72.1677 30.6508Z" fill="#FDFFFC"/>
<path d="M19.369 33.0207C19.6174 31.9506 19.9423 30.9952 20.3627 30.1353L15.7383 28.0334L15.6236 27.976C15.3561 27.8614 15.0504 27.8423 14.7446 27.9569L5.30471 31.8932L1.80776 30.6321C1.48291 30.5175 1.11983 30.6703 0.98607 30.9952C0.852307 31.32 1.02428 31.7022 1.34913 31.8359L5.0563 33.3073C5.19006 33.3646 5.34294 33.3646 5.49582 33.3264L5.53403 33.3073L14.9739 30.441L19.369 33.0207Z" fill="#FDFFFC"/>
<path d="M13.9801 44.6379L18.4517 41.9819C18.4708 40.7589 18.5281 39.5551 18.6236 38.3704L11.9163 42.8608L11.859 42.8991C11.4768 43.1666 11.2475 43.6252 11.324 44.122L14.2477 61.7591L11.7444 64.9121C11.5533 65.1605 11.5724 65.5235 11.8017 65.7337C12.0501 65.963 12.4323 65.9439 12.6616 65.6955L15.6235 62.447C15.7573 62.3133 15.8337 62.1031 15.7955 61.8929V61.8547L13.9801 44.6379Z" fill="#FDFFFC"/>
<path d="M36.8921 27.3832L44.9561 24.6315C45.2237 23.5423 45.2619 22.1856 44.7651 21.4213C43.9051 20.0646 40.5993 19.1856 38.975 19.0327L38.8604 18.4404C38.8604 17.7907 37.6947 16.969 36.9877 16.8926C36.2806 16.969 35.115 17.7907 35.115 18.4404L35.0194 19.0327C33.3952 19.2047 30.1084 20.0837 29.2294 21.4213C28.7134 22.2238 28.7708 23.657 29.0765 24.7653L36.8921 27.3832Z" fill="#FDFFFC"/>
<path d="M52.6379 33.9566C51.2429 28.8355 47.8224 26.81 45.9306 26.0457L37.1595 29.0266C37.0831 29.0648 36.9875 29.0648 36.892 29.0648C36.7965 29.0648 36.72 29.0457 36.6245 29.0266L27.8725 26.103C25.9425 26.9055 22.6748 28.9693 21.3372 33.9375C19.1014 42.2114 20.4773 53.5046 25.7896 61.9696C27.9489 65.4092 33.395 67.2244 34.5225 68.1417C35.497 68.9251 36.3187 69.5175 36.8156 69.7659C37.2933 69.5175 38.1341 68.9251 39.1086 68.1417C40.2361 67.2436 46.0261 65.4283 48.1855 61.9696C53.4978 53.5237 54.8927 42.2305 52.6379 33.9566Z" fill="#FDFFFC"/>
</svg>
