<svg width="299" height="106" viewBox="0 0 299 106" fill="none" xmlns="http://www.w3.org/2000/svg">
<path d="M42.28 52.095C42.28 54.825 42.0933 57.45 41.72 59.97C41.3467 62.4667 40.6233 64.8 39.55 66.97C38.5 69.14 36.9017 71.0883 34.755 72.815C33.7283 73.655 32.4917 74.3317 31.045 74.845C29.5983 75.3583 28.1167 75.7433 26.6 76C25.0833 76.2333 23.695 76.35 22.435 76.35C20.5217 76.35 18.7483 76.3383 17.115 76.315C15.4817 76.2917 13.825 76.2567 12.145 76.21C10.4883 76.1633 8.645 76.1167 6.615 76.07L6.125 75.615V28.575L6.615 28.12C8.62167 28.05 10.4533 28.0033 12.11 27.98C13.79 27.9333 15.4467 27.91 17.08 27.91C18.7367 27.8867 20.5217 27.875 22.435 27.875C23.695 27.875 25.0833 28.0033 26.6 28.26C28.1167 28.4933 29.5983 28.8783 31.045 29.415C32.515 29.9283 33.7517 30.605 34.755 31.445C36.8783 33.1717 38.4767 35.12 39.55 37.29C40.6233 39.46 41.3467 41.7933 41.72 44.29C42.0933 46.7867 42.28 49.3883 42.28 52.095ZM33.775 52.095C33.775 50.065 33.635 48.0117 33.355 45.935C33.0983 43.8583 32.5733 41.9567 31.78 40.23C31.01 38.48 29.8667 37.08 28.35 36.03C26.8567 34.9567 24.8733 34.42 22.4 34.42C21 34.42 19.6817 34.42 18.445 34.42C17.2083 34.3967 15.8317 34.3733 14.315 34.35V69.77C15.8317 69.77 17.2083 69.7817 18.445 69.805C19.6817 69.805 21 69.805 22.4 69.805C24.8733 69.805 26.8567 69.28 28.35 68.23C29.8667 67.1567 31.01 65.745 31.78 63.995C32.5733 62.245 33.0983 60.3317 33.355 58.255C33.635 56.155 33.775 54.1017 33.775 52.095ZM53.5741 61.23V55.525H69.8141V54.615C69.8141 53.0983 69.5924 51.71 69.1491 50.45C68.7291 49.19 68.0407 48.175 67.0841 47.405C66.1507 46.635 64.9024 46.25 63.3391 46.25C61.0991 46.25 59.4307 47.195 58.3341 49.085C57.2607 50.975 56.7241 53.6117 56.7241 56.995V59.445C56.7241 61.4983 56.9224 63.3767 57.3191 65.08C57.7391 66.76 58.5091 68.09 59.6291 69.07C60.7491 70.05 62.3474 70.54 64.4241 70.54C66.1741 70.54 67.8541 70.3067 69.4641 69.84C71.0741 69.35 72.6024 68.7317 74.0491 67.985C74.7024 68.615 75.2391 69.4083 75.6591 70.365C76.0791 71.2983 76.3474 72.1733 76.4641 72.99C74.7607 74.2033 72.7307 75.1717 70.3741 75.895C68.0407 76.595 65.6491 76.945 63.1991 76.945C60.3757 76.945 58.0191 76.455 56.1291 75.475C54.2391 74.4717 52.7341 73.1183 51.6141 71.415C50.5174 69.6883 49.7357 67.74 49.2691 65.57C48.8024 63.4 48.5691 61.1367 48.5691 58.78C48.5691 55.3033 49.1057 52.1767 50.1791 49.4C51.2524 46.6233 52.8857 44.4417 55.0791 42.855C57.2724 41.245 60.0374 40.44 63.3741 40.44C66.4074 40.44 68.9624 41.105 71.0391 42.435C73.1391 43.7417 74.7257 45.5267 75.7991 47.79C76.8724 50.03 77.4091 52.5383 77.4091 55.315C77.4091 56.5283 77.3624 57.5667 77.2691 58.43C77.1757 59.27 77.0124 60.2033 76.7791 61.23H53.5741ZM106.496 41.315C106.496 42.3417 106.332 43.5783 106.006 45.025C105.702 46.4483 105.212 47.7083 104.536 48.805C104.046 48.665 103.544 48.5717 103.031 48.525C102.541 48.4783 102.051 48.4317 101.561 48.385C100.301 48.385 99.1924 48.6417 98.2357 49.155C97.3024 49.6683 96.4974 50.345 95.8207 51.185C95.144 52.0017 94.549 52.935 94.0357 53.985C93.5457 55.0117 93.1374 56.05 92.8107 57.1L91.7257 55.7C91.7724 53.9967 91.994 52.2817 92.3907 50.555C92.7874 48.805 93.394 47.2067 94.2107 45.76C95.0274 44.29 96.124 43.1117 97.5007 42.225C98.8774 41.3383 100.569 40.895 102.576 40.895C103.299 40.895 103.964 40.93 104.571 41C105.177 41.07 105.819 41.175 106.496 41.315ZM83.8157 45.06C84.0024 44.3367 84.364 43.555 84.9007 42.715C85.4374 41.875 85.9974 41.2567 86.5807 40.86C89.1007 41.3033 90.979 42.4817 92.2157 44.395C93.4524 46.285 94.164 48.6883 94.3507 51.605V76C93.814 76.0933 93.1957 76.1633 92.4957 76.21C91.819 76.28 91.119 76.315 90.3957 76.315C89.6957 76.315 88.9957 76.28 88.2957 76.21C87.5957 76.1633 86.9657 76.0933 86.4057 76V52.27C86.4057 50.3567 86.1257 48.805 85.5657 47.615C85.0057 46.425 84.4224 45.5733 83.8157 45.06ZM109.1 66.585C109.1 63.8783 109.695 61.6617 110.885 59.935C112.099 58.2083 113.72 56.9367 115.75 56.12C117.804 55.28 120.079 54.86 122.575 54.86C123.835 54.86 125.282 54.9183 126.915 55.035C128.549 55.1283 130.065 55.3267 131.465 55.63V60.915C130.275 60.635 128.91 60.46 127.37 60.39C125.83 60.2967 124.43 60.25 123.17 60.25C121.164 60.25 119.624 60.775 118.55 61.825C117.477 62.8517 116.94 64.2517 116.94 66.025C116.94 67.355 117.325 68.475 118.095 69.385C118.865 70.295 119.962 70.75 121.385 70.75C123.019 70.75 124.734 70.1783 126.53 69.035C128.35 67.8917 129.879 66.2233 131.115 64.03L132.305 69.805C131.465 70.8083 130.427 71.87 129.19 72.99C127.977 74.0867 126.565 75.02 124.955 75.79C123.345 76.56 121.514 76.945 119.46 76.945C117.127 76.945 115.19 76.4317 113.65 75.405C112.11 74.355 110.967 73.0367 110.22 71.45C109.474 69.8633 109.1 68.2417 109.1 66.585ZM138.78 72.43C138.617 73.1533 138.255 73.9233 137.695 74.74C137.159 75.5333 136.587 76.1283 135.98 76.525C134.394 76.2917 133.099 75.7667 132.095 74.95C131.092 74.1333 130.345 73.1533 129.855 72.01C129.365 70.8433 129.062 69.6533 128.945 68.44V52.795C128.945 50.7417 128.467 49.26 127.51 48.35C126.577 47.4167 125.224 46.95 123.45 46.95C121.77 46.95 119.997 47.2183 118.13 47.755C116.287 48.2683 114.432 48.8633 112.565 49.54C111.959 48.91 111.457 48.0467 111.06 46.95C110.664 45.8533 110.442 44.7917 110.395 43.765C111.749 43.205 113.277 42.68 114.98 42.19C116.684 41.7 118.422 41.315 120.195 41.035C121.969 40.755 123.649 40.615 125.235 40.615C127.475 40.615 129.459 41.035 131.185 41.875C132.935 42.6917 134.312 43.9633 135.315 45.69C136.319 47.4167 136.82 49.645 136.82 52.375V66.725C136.82 67.9617 136.949 69.0583 137.205 70.015C137.485 70.9717 138.01 71.7767 138.78 72.43ZM143.772 73.445C143.819 72.5817 144.087 71.6133 144.577 70.54C145.067 69.4433 145.639 68.58 146.292 67.95C147.786 68.7433 149.361 69.455 151.017 70.085C152.697 70.715 154.389 71.03 156.092 71.03C157.889 71.03 159.301 70.6567 160.327 69.91C161.377 69.14 161.914 68.1833 161.937 67.04C161.937 66.1067 161.587 65.255 160.887 64.485C160.187 63.6917 159.149 63.05 157.772 62.56L153.747 61.09C152.137 60.5067 150.656 59.7717 149.302 58.885C147.972 57.9983 146.899 56.9133 146.082 55.63C145.289 54.3233 144.892 52.7833 144.892 51.01C144.892 48.8167 145.441 46.9383 146.537 45.375C147.634 43.7883 149.127 42.575 151.017 41.735C152.931 40.8717 155.089 40.44 157.492 40.44C159.452 40.44 161.529 40.6967 163.722 41.21C165.916 41.7233 167.747 42.33 169.217 43.03C169.241 43.6833 169.159 44.395 168.972 45.165C168.786 45.9117 168.506 46.6117 168.132 47.265C167.782 47.895 167.374 48.4083 166.907 48.805C165.647 48.2217 164.189 47.685 162.532 47.195C160.899 46.6817 159.219 46.425 157.492 46.425C156.092 46.425 154.972 46.775 154.132 47.475C153.292 48.1517 152.872 49.0383 152.872 50.135C152.872 51.045 153.199 51.8033 153.852 52.41C154.506 53.0167 155.509 53.565 156.862 54.055L161.167 55.63C163.804 56.5867 165.962 57.9167 167.642 59.62C169.322 61.3233 170.162 63.5633 170.162 66.34C170.162 69.6067 168.879 72.1967 166.312 74.11C163.769 76 160.386 76.945 156.162 76.945C153.689 76.945 151.391 76.595 149.267 75.895C147.144 75.195 145.312 74.3783 143.772 73.445Z" fill="#264653"/>
<path d="M194.216 39.7692L192.198 41.9231L195.225 45.1538C193.964 45.9615 192.955 47.3077 192.45 48.9231H186.901V51.6154H191.946V54.3077H186.901V57H191.946V59.6923H186.901V62.3846H192.45C193.459 65.6154 196.234 67.7692 199.513 67.7692C202.793 67.7692 205.568 65.6154 206.577 62.3846H212.126V59.6923H207.081V57H212.126V54.3077H207.081V51.6154H212.126V48.9231H206.577C206.072 47.3077 205.063 45.9615 203.802 44.8846L206.829 41.6538L205.063 39.7692L201.532 43.5385H199.513C199.009 43.5385 198.252 43.5385 197.748 43.8077L194.216 39.7692ZM196.991 51.6154H202.036V54.3077H196.991V51.6154ZM196.991 57H202.036V59.6923H196.991V57ZM222.216 51.6154C222.216 66.4231 212.631 80.4231 199.513 83.9231C186.396 80.4231 176.811 66.4231 176.811 51.6154V35.4615L199.513 24.6923L222.216 35.4615V51.6154ZM199.513 78.5385C209.099 75.8462 217.171 63.7308 217.171 52.1538V38.9615L199.513 30.6154L181.856 38.9615V52.1538C181.856 63.7308 189.928 75.8462 199.513 78.5385Z" fill="#264653"/>
<path d="M272.395 76C271.835 76.0933 271.205 76.1633 270.505 76.21C269.805 76.28 269.117 76.315 268.44 76.315C267.74 76.315 267.04 76.28 266.34 76.21C265.64 76.1633 264.998 76.0933 264.415 76V50.835C264.415 49.6217 264.193 48.7 263.75 48.07C263.307 47.4167 262.502 47.09 261.335 47.09H257.38L248.315 76C247.405 76.14 246.425 76.2333 245.375 76.28C244.348 76.35 243.357 76.385 242.4 76.385C240.837 76.385 239.635 76.1167 238.795 75.58C237.955 75.0433 237.255 73.8883 236.695 72.115L227.245 41.98C228.085 41.6067 228.89 41.3267 229.66 41.14C230.43 40.93 231.142 40.825 231.795 40.825C232.962 40.825 233.895 41.0817 234.595 41.595C235.318 42.1083 235.855 43.0183 236.205 44.325L240.58 59.235C240.93 60.3317 241.257 61.51 241.56 62.77C241.887 64.03 242.178 65.22 242.435 66.34C242.692 67.46 242.89 68.3817 243.03 69.105C243.147 69.4783 243.368 69.665 243.695 69.665L251.43 41.665C251.943 41.525 252.573 41.42 253.32 41.35C254.067 41.28 254.72 41.245 255.28 41.245H266.445C268.265 41.245 269.712 41.8283 270.785 42.995C271.858 44.1617 272.395 45.7483 272.395 47.755V76ZM262.28 31.935C262.28 31.3983 262.338 30.8267 262.455 30.22C262.572 29.6133 262.735 29.0767 262.945 28.61C263.412 28.3533 264.03 28.1433 264.8 27.98C265.593 27.8167 266.352 27.735 267.075 27.735C267.775 27.735 268.533 27.8167 269.35 27.98C270.19 28.1433 270.808 28.3533 271.205 28.61C271.415 29.0767 271.567 29.625 271.66 30.255C271.777 30.8617 271.835 31.4217 271.835 31.935C271.835 32.4717 271.777 33.0433 271.66 33.65C271.567 34.2567 271.415 34.7817 271.205 35.225C270.832 35.4817 270.225 35.7033 269.385 35.89C268.545 36.0533 267.775 36.135 267.075 36.135C266.352 36.135 265.582 36.0533 264.765 35.89C263.972 35.7267 263.365 35.505 262.945 35.225C262.735 34.7817 262.572 34.2567 262.455 33.65C262.338 33.0433 262.28 32.4717 262.28 31.935ZM295.683 70.05C295.869 70.6333 296.021 71.275 296.138 71.975C296.278 72.6517 296.348 73.3283 296.348 74.005C296.348 74.3083 296.336 74.6117 296.313 74.915C296.289 75.2183 296.231 75.4983 296.138 75.755C295.298 75.895 294.306 76.0233 293.163 76.14C292.019 76.2567 290.923 76.315 289.873 76.315C287.446 76.315 285.626 75.685 284.413 74.425C283.223 73.1417 282.628 71.205 282.628 68.615V24.97L283.083 24.515H286.128C287.761 24.515 288.881 24.9117 289.488 25.705C290.094 26.475 290.398 27.7467 290.398 29.52V66.935C290.398 69.0117 291.343 70.05 293.233 70.05H295.683Z" fill="#264653"/>
</svg>
