<svg width="59" height="45" viewBox="0 0 59 45" fill="none" xmlns="http://www.w3.org/2000/svg">
<path d="M54.1177 30.3372C48.9918 37.2375 41.0012 40.2952 40.9246 40.3226C40.9181 40.3251 40.8699 40.3425 40.8634 40.345C40.6731 40.4198 40.3845 40.5294 39.9996 40.6316C34.55 42.0894 28.6784 41.4215 23.4759 38.7501C22.7083 38.3489 21.8773 37.9253 20.972 37.4618C20.9151 37.4344 20.8583 37.412 20.7992 37.397C18.4921 36.7989 16.3053 36.6619 13.996 36.9734L12.6883 27.3892C13.5236 27.0977 14.3109 26.8186 14.956 26.5669C17.788 25.4605 19.8283 24.8773 21.1141 24.5708C21.1251 24.5683 21.1382 24.5658 21.1491 24.5634C22.2294 24.3092 22.7652 24.2519 22.7586 24.2519C24.9629 24.1721 25.3588 24.2344 26.5309 24.4188C27.3072 24.5384 28.37 24.7054 30.3994 24.9122C30.5853 24.9322 30.839 24.977 31.1473 25.0318C32.8793 25.3384 36.1027 25.909 39.6125 24.6232C39.7896 24.5584 39.9799 24.4986 40.1745 24.4512C40.1898 24.4487 40.2051 24.4462 40.2205 24.4437C40.7912 24.3142 41.3839 24.3216 41.7206 24.7328C42.2258 25.3533 42.1799 26.7862 41.9262 27.4939C41.725 28.0521 40.7213 29.1311 36.2798 30.0806C34.4297 30.4768 33.0302 30.4643 32.4332 30.4594C32.162 30.4618 31.3157 30.4519 31.2195 31.4038C31.1211 32.3582 31.9433 32.5701 32.2538 32.6498C32.2779 32.6548 32.3019 32.6598 32.326 32.6648C32.3304 32.6648 32.3479 32.6697 32.3785 32.6847C32.4091 32.6971 32.4397 32.7096 32.4725 32.7196C36.4941 34.0104 40.7978 33.7438 44.5919 31.9745C44.6072 31.9695 44.6357 31.957 44.6444 31.9545C44.6641 31.9471 44.6838 31.9396 44.7035 31.9296C47.5835 30.584 50.2208 28.4658 52.3333 25.8044C53.9756 23.7335 55.3489 23.9179 56.2499 24.2718C56.2477 25.4829 55.6026 28.3212 54.1177 30.3372ZM12.6314 41.1923C12.6052 41.2321 12.5571 41.2845 12.4783 41.2994L4.30398 42.7473L1.97718 25.6922L10.1887 24.2419C10.3024 24.2419 10.403 24.3391 10.4205 24.4687L12.6752 40.9929C12.6861 41.0826 12.6577 41.1499 12.6314 41.1923ZM21.8686 14.0024H29.5575V22.7068C28.2104 22.5548 27.3991 22.4277 26.7824 22.333C25.5643 22.1412 25.0592 22.0614 22.658 22.1486C22.6252 22.1536 22.3606 22.1785 21.8686 22.2682V14.0024ZM31.4053 2.10572H39.0942V22.6047C39.0789 22.6096 39.0636 22.6146 39.0461 22.6196C35.954 23.751 33.0105 23.2301 31.4294 22.951C31.4207 22.951 31.4141 22.9486 31.4053 22.9486V12.9483V2.10572ZM48.6222 8.35059V26.8909C47.2205 28.1543 45.6722 29.1959 44.0387 29.9659C43.9906 29.9834 43.9446 30.0008 43.9053 30.0208V30.0183C42.6238 30.6188 41.2789 31.0275 39.9056 31.2418C42.0049 30.4743 43.1902 29.5249 43.6363 28.2913C44.0496 27.1351 44.2617 24.7577 43.0743 23.2999C42.6631 22.7941 41.9918 22.3031 40.9421 22.2682V8.35059H48.6222ZM57.9644 23.1878C57.8813 22.8962 57.691 22.662 57.4439 22.5424C56.543 22.1137 53.805 20.8055 50.9622 24.3939C50.8025 24.5957 50.6363 24.7876 50.4679 24.982V7.29649C50.4679 6.71586 50.0546 6.24488 49.5451 6.24488H40.9421V1.05161C40.9421 0.470982 40.5288 0 40.0193 0H30.4825C29.9708 0 29.5575 0.470982 29.5575 1.05161V11.8967H20.9457C20.434 11.8967 20.0207 12.3676 20.0207 12.9483V22.6869C18.6714 23.0408 16.793 23.6239 14.359 24.5758C13.8014 24.7926 13.1256 25.0343 12.4018 25.2885L12.2465 24.1447C12.0716 22.8613 11.0328 21.9567 9.86726 22.1636L0.780982 23.7734C0.275824 23.8631 -0.0674912 24.4014 0.0112347 24.977L2.62012 44.1104C2.69228 44.6287 3.08592 45 3.53203 45C3.58014 45 3.62824 44.9975 3.67635 44.9875L12.7626 43.3777C13.3115 43.2805 13.7948 42.9441 14.1228 42.4333C14.4531 41.9224 14.5864 41.2944 14.5012 40.669L14.2803 39.0542C16.325 38.7875 18.2603 38.9096 20.3006 39.428C21.1688 39.869 21.967 40.2777 22.7105 40.6665C26.356 42.5379 30.3032 43.4924 34.2307 43.4924C36.3148 43.4924 38.3945 43.2232 40.4195 42.68C40.8874 42.5554 41.2395 42.4233 41.4713 42.3336C41.5544 42.3037 49.9781 39.1663 55.5305 31.6929C57.5052 29.0115 58.4608 24.9172 57.9644 23.1878Z" fill="#E76F51"/>
</svg>
