<?xml version="1.0" encoding="utf-8"?>
<!-- Generator: Adobe Illustrator 25.4.1, SVG Export Plug-In . SVG Version: 6.00 Build 0)  -->
<svg version="1.1" id="Layer_1" xmlns="http://www.w3.org/2000/svg" xmlns:xlink="http://www.w3.org/1999/xlink" x="0px" y="0px"
	 viewBox="0 0 4000 4000" style="enable-background:new 0 0 4000 4000;" xml:space="preserve">
<style type="text/css">
	.st0{fill:#264653;}
</style>
<g>
	<path class="st0" d="M838.6,1475.66h2322.8c56.38,0,110.46-22.4,150.33-62.27s62.27-93.95,62.27-150.33s-22.4-110.46-62.27-150.33
		s-93.95-62.27-150.33-62.27H838.6c-56.38,0-110.46,22.4-150.33,62.27C648.4,1152.6,626,1206.67,626,1263.06
		s22.4,110.46,62.27,150.33C728.14,1453.26,782.22,1475.66,838.6,1475.66z"/>
	<path class="st0" d="M3161.4,1787.4H838.6c-56.38,0-110.46,22.4-150.33,62.27C648.4,1889.54,626,1943.62,626,2000
		s22.4,110.46,62.27,150.33c39.87,39.87,93.95,62.27,150.33,62.27h2322.8c56.38,0,110.46-22.4,150.33-62.27S3374,2056.38,3374,2000
		s-22.4-110.46-62.27-150.33S3217.78,1787.4,3161.4,1787.4z"/>
	<path class="st0" d="M3161.4,2524.34H838.6c-56.38,0-110.46,22.4-150.33,62.27c-39.87,39.87-62.27,93.95-62.27,150.33
		s22.4,110.46,62.27,150.33c39.87,39.87,93.95,62.27,150.33,62.27h2322.8c56.38,0,110.46-22.4,150.33-62.27
		s62.27-93.95,62.27-150.33s-22.4-110.46-62.27-150.33S3217.78,2524.34,3161.4,2524.34z"/>
</g>
</svg>
