<svg width="117" height="94" viewBox="0 0 117 94" fill="none" xmlns="http://www.w3.org/2000/svg">
<path d="M116.195 10.9623V12.0133C116.195 13.089 115.762 14.0814 115.061 14.6116L59.3771 56.9607C58.6876 57.4846 57.8384 57.4846 57.1489 56.9607L1.46495 14.627C0.763844 14.0938 0.331055 13.1013 0.331055 12.0287V7.96949C0.331055 3.59589 2.99203 0.0390625 6.28471 0.0390625H107.99C112.523 0.0390625 116.195 4.93048 116.195 10.9623Z" fill="#FDFFFC"/>
<path d="M59.9813 68.0011L116.195 25.2451V85.6095C116.195 89.9955 113.523 93.54 110.241 93.54H6.28959C2.9946 93.54 0.335938 89.9955 0.335938 85.6095V25.2605L56.5499 68.0011C57.0798 68.4141 57.679 68.6144 58.2668 68.6144C58.8545 68.6144 59.4398 68.4141 59.9813 68.0011Z" fill="#FDFFFC"/>
</svg>
