<svg width="63" height="75" viewBox="0 0 63 75" fill="none" xmlns="http://www.w3.org/2000/svg">
<path d="M14.9183 0.796954C15.3137 1.96653 15.6893 3.13608 15.9859 4.32365C16.1441 4.89944 16.3023 5.52921 16.4012 6.06901C16.4605 6.33891 16.5197 6.6088 16.5395 6.93268L16.5593 7.16661C16.5593 7.1846 16.5791 7.29255 16.5593 7.23857V7.34655L16.5395 7.81437C16.4604 10.2975 16.322 12.7086 16.1836 15.1017L16.1639 15.5335L16.4605 15.8574C18.2795 17.8367 20.138 19.852 21.8977 21.8492C22.7875 22.8569 23.6772 23.8465 24.5471 24.8721L24.903 25.304C25.081 24.2424 25.3578 23.1987 25.773 22.2991C25.1601 21.6513 24.5274 21.0035 23.9144 20.3558C22.0954 18.4485 20.2566 16.6131 18.3981 14.7778C18.319 12.4207 18.2201 10.0995 18.0817 7.81437L18.062 7.34655L18.0422 7.07663L18.0027 6.84274C17.9829 6.55484 17.9038 6.21295 17.8247 5.87108C17.6666 5.20532 17.4886 4.62954 17.3106 4.01776L16.1639 0.455075C16.065 0.149187 15.6894 -0.0307494 15.3533 0.0592176C14.9974 0.131191 14.7996 0.473072 14.9183 0.796954Z" fill="#264653"/>
<path d="M38.0709 25.2859L38.4268 24.854C39.2967 23.8284 40.1865 22.8387 41.0762 21.8311C42.8359 19.8338 44.6944 17.8186 46.5134 15.8393L46.81 15.5154L46.7903 15.0836C46.6519 12.6905 46.5134 10.2614 46.4343 7.79628L46.4146 7.32843V7.22048C46.4146 7.27446 46.4146 7.16651 46.4146 7.14851L46.4343 6.91459C46.4541 6.59071 46.5134 6.32082 46.5727 6.05091C46.6716 5.51111 46.8298 4.88134 46.988 4.30555C47.2846 3.11799 47.6602 1.9484 48.0556 0.778832V0.760849C48.1545 0.436967 47.9568 0.113079 47.6207 0.0231124C47.2648 -0.0668546 46.9089 0.113072 46.81 0.436953L45.6633 3.99967C45.4853 4.61144 45.3073 5.16924 45.1492 5.85299C45.0701 6.17687 44.991 6.51873 44.9712 6.82462L44.9317 7.05854L44.9119 7.32843L44.8921 7.79628C44.7537 10.0814 44.6549 12.4206 44.5758 14.7597C42.7173 16.613 40.8983 18.4304 39.0595 20.3377C38.4466 20.9854 37.8139 21.6332 37.2009 22.2809C37.6161 23.1986 37.8929 24.2243 38.0709 25.2859Z" fill="#264653"/>
<path d="M9.16482 37.2874L9.40207 37.0715C10.4697 36.0459 11.5177 35.0203 12.6842 34.0486C13.6926 33.1489 14.7602 32.2853 15.7883 31.4216L19.1693 31.4396C20.0789 30.6299 21.0477 29.8381 22.0758 29.0284L15.3138 29.3523L14.8393 29.3703L14.5625 29.6402C13.4355 30.6839 12.3481 31.7095 11.2606 32.7891C10.2325 33.7787 9.24388 34.8403 8.27506 35.9019L0.484961 37.6833C0.14884 37.7553 -0.0488586 38.0611 0.0104568 38.367C0.0895441 38.6909 0.425675 38.8888 0.761795 38.8169L8.92756 37.3234L9.16482 37.2874Z" fill="#264653"/>
<path d="M21.2058 59.4373C21.7989 62.5141 22.3723 65.4111 22.8468 67.8222C22.7084 68.326 22.0955 69.3156 21.6803 69.9994C21.2255 70.7371 20.8103 71.3669 20.4939 71.8887C19.8217 72.9323 19.446 73.5441 19.446 73.5441C19.3076 73.778 19.3867 74.0659 19.624 74.2098C19.881 74.3538 20.1974 74.2818 20.3556 74.0479C20.3556 74.0479 20.7707 73.4721 21.4825 72.4465C21.8384 71.9247 22.2734 71.2949 22.7677 70.5752C23.005 70.1973 23.262 69.8195 23.5388 69.3876C23.7365 69.0278 24.2308 68.344 24.2308 67.6603C23.8156 64.8713 23.2818 61.4345 22.748 57.8179C22.2141 58.4117 21.7198 58.9335 21.2058 59.4373Z" fill="#264653"/>
<path d="M62.5092 37.6652L54.7191 35.8839C53.7503 34.8223 52.7618 33.7606 51.7336 32.771C50.666 31.6914 49.5587 30.6658 48.4317 29.6221L48.1549 29.3523L47.6804 29.3343L40.9185 29.0104C41.9466 29.8201 42.9154 30.6298 43.8249 31.4215L47.2059 31.4035C48.2538 32.2672 49.3017 33.1309 50.3101 34.0306C51.4568 35.0022 52.5245 36.0278 53.5922 37.0534L53.8294 37.2693L54.0667 37.3053L62.2325 38.7988C62.5686 38.8528 62.9047 38.6728 62.9838 38.3669C63.0629 38.0611 62.8454 37.7552 62.5092 37.6652Z" fill="#264653"/>
<path d="M42.4803 71.8887C42.1442 71.3669 41.7488 70.7371 41.2941 69.9994C40.8789 69.3156 40.266 68.308 40.1276 67.8222C40.6021 65.4111 41.1557 62.5141 41.7686 59.4373C41.2545 58.9514 40.7602 58.4117 40.2659 57.8179C39.7123 61.4525 39.1982 64.8713 38.783 67.6603C38.7633 68.362 39.2773 69.0457 39.4751 69.3876C39.7321 69.8195 39.9891 70.1973 40.2462 70.5752C40.7405 71.2949 41.1754 71.9247 41.5313 72.4465C42.2431 73.4721 42.6583 74.0479 42.6583 74.0479C42.8165 74.2638 43.1329 74.3538 43.3899 74.2098C43.6469 74.0659 43.726 73.778 43.5876 73.5441C43.5481 73.5441 43.1526 72.9323 42.4803 71.8887Z" fill="#264653"/>
<path d="M36.7663 48.9472C35.7974 41.048 35.1647 36.1359 34.8484 32.987C33.7807 32.3932 32.6339 32.0154 31.4872 31.7994C30.3404 32.0154 29.1936 32.3932 28.1457 32.987C27.8294 36.1359 27.1967 41.048 26.2279 48.9472L26.129 49.7568C26.0104 50.8365 25.7534 51.8261 25.4568 52.7617C26.9001 56.9362 29.0355 60.319 31.507 60.319C33.9784 60.319 36.1138 56.9362 37.5571 52.7617C37.2605 51.8261 37.0035 50.8365 36.8849 49.7568L36.7663 48.9472Z" fill="#264653"/>
<path d="M36.529 27.877C35.8172 27.3732 38.5259 48.7854 38.605 49.6131C39.7518 59.7434 51.1403 63.558 52.7418 62.8742C55.9053 61.5247 55.7076 52.7259 54.3038 49.1453C51.4171 41.8579 47.0674 35.3263 36.529 27.877Z" fill="#264653"/>
<path d="M26.445 27.877C15.9067 35.3263 11.5569 41.8759 8.67019 49.1453C7.24662 52.726 7.06863 61.5247 10.2321 62.8742C11.8336 63.558 23.2223 59.7434 24.369 49.6131C24.4481 48.7674 27.1568 27.3732 26.445 27.877Z" fill="#264653"/>
<path d="M28.7782 20.3916C29.1341 20.5355 29.4702 20.7514 29.8063 20.9853C27.9083 21.2912 27.0383 23.9182 26.7813 26.2214C26.9197 26.2394 27.058 26.2574 27.4139 26.2934C28.2048 27.229 28.541 27.6609 28.3235 30.8097C30.36 30.108 32.6139 30.2159 34.6504 31.0616C34.3934 27.6789 34.7295 27.265 35.5402 26.2934L36.1729 26.2214C35.9158 23.9722 35.0854 21.3992 33.2664 21.0033C33.6025 20.7694 33.9584 20.5355 34.3341 20.3916C37.4778 19.078 38.1105 18.4123 38.1105 15.6773C38.1105 15.6773 39.4154 13.8959 34.4725 12.7983C31.5462 12.1506 32.8117 10.7111 31.8428 10.7831C31.744 10.7831 31.6451 10.7831 31.5265 10.8191C31.4079 10.7831 31.309 10.7651 31.2101 10.7831C30.2611 10.7111 31.5067 12.1506 28.5804 12.7983C23.6375 13.8959 24.9424 15.6773 24.9424 15.6773C24.982 18.4123 25.6345 19.078 28.7782 20.3916Z" fill="#264653"/>
</svg>
