<svg width="72" height="80" viewBox="0 0 72 80" fill="none" xmlns="http://www.w3.org/2000/svg">
<path d="M22.2775 7.41419L23.3859 17.6945C23.405 17.8856 23.5005 18.0767 23.6534 18.2105L23.6725 18.2296L31.8894 25.1851C31.9849 24.4972 32.1187 23.8666 32.3098 23.3124C32.176 23.1405 32.0614 22.9303 31.9467 22.7201L24.9719 17.1595L23.5578 6.9938V6.97468C23.5387 6.82182 23.4432 6.66895 23.3094 6.55429L15.4173 0.516019C15.188 0.344043 14.8632 0.382262 14.6912 0.592455C14.5001 0.821757 14.5383 1.1466 14.7676 1.33769L22.2775 7.41419Z" fill="#FDFFFC"/>
<path d="M48.1702 18.2106L48.1893 18.1915C48.3422 18.0578 48.4377 17.8858 48.4568 17.6756L49.5651 7.39525L57.0559 1.29963C57.2852 1.12766 57.3234 0.802819 57.1323 0.573517C56.9604 0.344215 56.6355 0.305992 56.4062 0.477969L48.5142 6.51626C48.3804 6.6118 48.2849 6.76467 48.2657 6.93665V6.95575L46.8708 17.1215L39.9151 22.682C39.8004 22.8922 39.6858 23.1024 39.552 23.2744C39.724 23.8095 39.8577 24.44 39.9724 25.147L48.1702 18.2106Z" fill="#FDFFFC"/>
<path d="M20.424 50.9627V50.9436L20.0992 43.3958C19.5068 43.797 18.8953 44.1792 18.2838 44.5231L18.7615 50.6761L7.86932 61.9501C7.65912 62.1603 7.65912 62.5042 7.86932 62.7144C8.07952 62.9437 8.4426 62.9437 8.6528 62.7335L20.1756 51.5551C20.3285 51.4022 20.424 51.192 20.424 50.9627Z" fill="#FDFFFC"/>
<path d="M53.1388 50.6563L53.5592 45.1148C52.9477 44.7709 52.3553 44.4078 51.7629 44.0256L51.4763 50.9238V50.962C51.4763 51.1722 51.5528 51.4015 51.7247 51.5544L63.2667 62.7137C63.4769 62.9239 63.8208 62.9239 64.031 62.7137C64.2603 62.5035 64.2603 62.1405 64.0501 61.9303L53.1388 50.6563Z" fill="#FDFFFC"/>
<path d="M45.6859 58.0523L46.7178 39.9375C46.0489 39.2878 45.3992 38.619 44.7877 37.9502L44.1189 58.1861V58.2052C44.1189 58.339 44.138 58.4727 44.2145 58.5874L55.4124 78.8424C55.5461 79.0717 55.8328 79.1672 56.0621 79.0335C56.3105 78.8997 56.4061 78.6131 56.2723 78.3646L45.6859 58.0523Z" fill="#FDFFFC"/>
<path d="M25.1251 39.4781L26.1953 58.0515L15.6088 78.383C15.4942 78.6123 15.5706 78.918 15.7999 79.0327C16.0292 79.1664 16.3349 79.0709 16.4687 78.8416L27.6475 58.5866C27.7049 58.4719 27.7431 58.3382 27.7431 58.2044V58.1853L27.0552 37.6055C26.4628 38.2552 25.813 38.8666 25.1251 39.4781Z" fill="#FDFFFC"/>
<path d="M71.2159 42.9756C68.2731 38.7335 57.1325 26.9818 37.9087 25.7398C37.7367 24.2111 37.2972 23.0072 36.7813 22.1665C37.7941 22.0327 38.7686 18.5932 36.6475 17.8862C36.5902 15.7651 35.9214 9.57397 35.9214 9.57397C35.9214 9.57397 35.3481 15.7651 35.2908 17.8862C32.9977 18.6887 34.1825 22.1282 35.0806 22.1665C34.5838 23.0072 34.1442 24.192 33.9723 25.7398C14.7103 26.9436 3.53147 38.7335 0.588666 42.9756C-0.32857 44.3132 5.46148 45.6508 6.91377 45.6508C21.1883 45.6508 30.6855 31.3194 33.9341 26.5614C33.9341 26.7716 33.8959 26.9627 33.8959 27.1729C33.8959 29.5615 34.0678 29.3322 34.6602 31.7207C31.4499 37.9692 32.7111 52.3961 35.9787 60.3835C39.2273 52.377 40.4885 37.9501 37.259 31.7207C37.8514 29.3322 38.0043 29.5615 38.0043 27.1729C38.0043 27.0009 37.9852 26.8481 37.966 26.6761C41.2719 31.5296 50.7309 45.6508 64.9099 45.6508C66.3431 45.6699 72.1331 44.3132 71.2159 42.9756Z" fill="#FDFFFC"/>
</svg>
