<svg width="387" height="215" viewBox="0 0 387 215" fill="#FDFFFC" xmlns="http://www.w3.org/2000/svg">
<path d="M48.0429 17.6023C45.8628 17.6023 43.8643 18.9753 43.1116 21.0309L9.70823 111.324C9.2151 112.629 9.26716 114.057 9.86411 115.336C10.4611 116.616 11.4991 117.576 12.8228 118.069L53.9605 133.284C54.5574 133.496 55.1544 133.616 55.7773 133.616C57.9575 133.616 59.9301 132.23 60.6828 130.177L94.0861 39.8815C94.5793 38.576 94.5272 37.1511 93.9302 35.869C93.3333 34.6024 92.2952 33.6291 90.9975 33.149L49.8597 17.9242C49.2628 17.7087 48.6399 17.6023 48.0429 17.6023ZM94.7608 152.856C95.1242 155.083 97.538 157.19 98.9655 158.257C99.0693 158.337 99.1471 158.402 99.2509 158.483C103.092 161.87 105.688 162.589 107.167 162.589C109.736 162.589 111.138 160.149 111.294 159.882L111.372 159.736C118.457 147.644 116.355 145.215 110.93 140.87L110.619 140.629L110.541 140.577C109.269 139.842 108.075 139.497 106.907 139.497C102.573 139.497 98.8357 144.589 97.4082 146.79L97.3563 146.871C96.8372 147.696 96.4479 148.363 96.1883 148.895C96.0067 149.295 95.7472 149.656 95.4617 149.99L92.0876 153.749L94.7608 152.856ZM118.925 168.335C118.639 169.083 118.639 169.711 118.717 170.149C119.002 172.415 121.468 174.562 122.921 175.644C122.999 175.709 123.103 175.776 123.207 175.857C127.074 179.257 129.644 179.976 131.123 179.976C133.693 179.976 135.094 177.536 135.276 177.256L135.354 177.11C136.573 174.977 137.508 173.23 138.234 171.657L138.261 171.548L138.286 171.442C138.416 170.99 138.572 170.562 138.806 170.188L138.883 170.082L138.935 169.962C141.349 163.43 138.494 161.151 134.887 158.257L134.575 158.003L134.471 157.951C133.199 157.229 132.032 156.881 130.864 156.881C125.828 156.881 121.338 163.842 120.144 166.282C119.963 166.669 119.729 167.043 119.418 167.377L118.769 168.096L118.925 168.335ZM155.364 169.35C152.587 169.35 149.784 171.19 147.033 174.829L146.929 174.964L146.851 175.109C145.995 177.162 144.879 179.35 143.555 181.603C143.555 181.603 143.399 181.883 143.348 181.951L143.114 182.389L143.218 182.87C143.555 184.497 144.983 186.296 147.319 188.071C147.448 188.149 147.526 188.216 147.604 188.297C150.615 190.949 153.418 192.403 155.52 192.403C155.806 192.403 156.065 192.377 156.351 192.322C158.219 191.951 159.361 190.202 159.595 189.856L159.621 189.789L159.647 189.721C159.699 189.631 159.751 189.537 159.803 189.428C161.282 186.937 162.398 184.684 163.099 182.737C165.59 176.095 163.826 174.336 159.258 170.668L158.946 170.43L158.868 170.375C158.116 169.936 156.922 169.35 155.364 169.35ZM169.25 192.896C168.653 193.936 168.627 194.842 168.705 195.416C168.939 197.095 170.444 199.042 172.91 200.91C173.014 200.975 173.117 201.056 173.195 201.136C177.062 204.523 179.632 205.229 181.111 205.229C183.084 205.229 184.563 203.776 185.264 202.535L185.394 202.283C187.963 197.897 189.287 194.868 189.702 192.47L189.728 192.348V192.242C189.728 191.922 189.754 191.603 189.806 191.31L189.832 191.19V191.069C189.884 187.523 187.574 185.67 184.9 183.524L184.589 183.269L184.485 183.215C183.213 182.496 182.02 182.151 180.852 182.151C175.816 182.151 171.326 189.109 170.133 191.549C169.951 191.951 169.717 192.309 169.406 192.644L171.119 194.443L169.276 194.204L169.25 192.896ZM181.111 214.604C176.673 214.604 171.975 212.496 167.174 208.323C164.5 206.27 162.502 204.069 161.178 201.723L160.633 200.775L159.361 201.175C158.972 201.31 158.583 201.43 158.167 201.523C157.285 201.697 156.377 201.777 155.468 201.777C151.056 201.777 146.384 199.657 141.583 195.47C139.117 193.589 137.248 191.577 135.925 189.457L135.406 188.616L134.471 188.87C133.225 189.189 132.161 189.337 131.123 189.337C126.685 189.337 121.987 187.23 117.186 183.056C113.111 179.963 110.619 176.55 109.711 172.856L109.425 171.748L108.309 171.857C108.153 171.87 107.998 171.883 107.842 171.896C107.608 171.922 107.401 171.964 107.167 171.964C102.703 171.951 98.0312 169.843 93.2297 165.67C88.4541 162.044 85.8325 157.977 85.4173 153.549C85.1837 151.177 85.5989 148.83 86.663 146.59L87.1821 145.524L86.17 144.896C80.7715 141.47 75.1394 138.511 69.4294 136.097L68.4171 135.669L67.7944 136.577C65.0432 140.59 60.5529 142.978 55.7773 142.978C54.0383 142.978 52.3253 142.669 50.7162 142.069L9.5526 126.857C5.89303 125.497 2.98624 122.803 1.35111 119.255C-0.284013 115.71 -0.43979 111.736 0.909839 108.069L34.3132 17.7762C36.4415 12.0688 41.9436 8.23016 48.0429 8.23016C49.7559 8.23016 51.4689 8.53642 53.104 9.13597L94.2418 24.3505C97.9013 25.7105 100.808 28.4019 102.443 31.9629C104.079 35.5108 104.234 39.4844 102.885 43.1362L100.575 49.3368L102.469 49.3757C107.453 49.4691 112.488 49.5236 117.393 49.5236C127.308 49.5236 136.366 49.3238 144.282 48.9111H144.515C147.007 48.9111 149.058 50.8551 149.187 53.3493C149.265 54.6029 148.85 55.802 147.993 56.7234C147.163 57.6551 146.021 58.2028 144.749 58.2703C136.677 58.6829 127.463 58.8957 117.341 58.8957C109.243 58.8957 102.417 58.7634 98.1349 58.644L97.1745 58.6284L96.8633 59.5368C96.7076 59.9365 96.5776 60.2973 96.4479 60.6684L96.0847 61.5898C95.5396 63.0433 94.9166 64.7485 94.2418 66.6172C94.1898 66.7106 94.1639 66.8041 94.112 66.9105C94.0082 67.1908 93.8784 67.497 93.7746 67.8033L85.7546 89.6829C82.1989 99.3223 78.4874 109.39 75.5546 117.444L72.492 125.778L72.0507 126.977L73.2187 127.47C79.3958 130.096 85.547 133.349 91.5165 137.151L92.4511 137.75L93.2036 136.935C97.3822 132.417 102.002 130.122 106.907 130.122C109.892 130.122 112.877 131.015 115.732 132.778C115.914 132.881 116.069 132.99 116.225 133.123L116.796 133.564C121.598 137.403 124.868 141.137 125.205 146.829L125.283 148.47L126.866 148.044C128.216 147.683 129.54 147.509 130.864 147.509C133.848 147.509 136.833 148.402 139.714 150.162C139.87 150.255 140.025 150.377 140.207 150.51L140.726 150.935C143.815 153.416 146.903 156.23 148.331 160.082L148.798 161.322L150.044 160.871C151.757 160.255 153.522 159.936 155.287 159.936C158.271 159.936 161.23 160.829 164.111 162.589C164.267 162.695 164.449 162.817 164.604 162.937L165.123 163.362C167.797 165.509 171.43 168.428 172.91 173.23L173.351 174.655L174.7 174.068C176.751 173.204 178.775 172.776 180.852 172.776C183.862 172.776 186.847 173.669 189.702 175.415C189.884 175.522 190.039 175.644 190.195 175.763L190.74 176.202C193.959 178.789 197.151 181.764 198.501 185.922L198.89 187.043L200.032 186.817C203.821 186.044 207.299 184.79 210.076 183.189L210.232 183.095L210.362 182.963C211.582 181.709 212.23 179.669 212.153 178.496L212.101 177.655L183.11 166.682L183.006 166.63L171.145 162.27C168.731 161.377 167.485 158.67 168.394 156.243C169.042 154.416 170.833 153.175 172.78 153.175C173.325 153.175 173.87 153.284 174.389 153.468L214.177 168.122C214.982 168.416 215.708 168.776 216.513 169.282L216.617 169.35L231.8 175.096C233.669 175.789 236.524 176.163 239.794 176.163C245.374 176.163 252.33 175.057 255.237 172.576L255.289 172.522L255.341 172.47C256.898 170.79 257.599 168.857 257.261 167.297C257.054 166.456 256.431 165.337 254.562 164.642L201.356 145.083L201.226 145.031L181.085 137.644C178.672 136.749 177.426 134.057 178.308 131.63C178.983 129.79 180.748 128.563 182.72 128.563C183.265 128.563 183.811 128.656 184.33 128.843L268.422 159.71C269.668 160.162 271.173 160.403 272.808 160.403C274.313 160.403 275.845 160.191 277.22 159.804C279.945 159.015 281.97 157.548 282.593 155.895C283.423 153.577 283.371 151.257 282.411 149.176C281.477 147.123 279.764 145.563 277.662 144.776L258.377 137.683C258.17 137.628 258.014 137.589 257.884 137.551C257.754 137.522 257.625 137.496 257.521 137.457L216.435 122.256L189.494 112.349C188.326 111.91 187.392 111.043 186.873 109.909C186.328 108.778 186.302 107.511 186.717 106.335C187.392 104.495 189.157 103.257 191.129 103.257C191.675 103.257 192.22 103.363 192.739 103.55L214.125 111.417L214.203 111.443L220.069 113.615L261.777 128.962L261.907 128.988C262.115 129.017 262.322 129.03 262.556 129.03C265.048 129.03 267.02 126.87 268.655 122.443L268.733 122.256C269.538 120.057 269.434 117.763 268.5 115.723C267.539 113.67 265.852 112.11 263.724 111.324L215.008 93.4151C212.594 92.5352 211.322 89.8308 212.231 87.4041C212.905 85.5769 214.67 84.3362 216.617 84.3362C217.162 84.3362 217.707 84.4297 218.226 84.6296L266.968 102.535C271.432 104.176 274.988 107.456 276.987 111.775C278.985 116.11 279.193 120.95 277.532 125.417C277.532 125.417 277.428 125.749 277.428 125.762C276.597 128.03 275.533 130.083 274.365 131.802L273.379 133.229L280.88 135.988C285.37 137.628 288.926 140.909 290.924 145.243C292.923 149.562 293.104 154.403 291.469 158.87C289.704 163.63 285.578 167.149 279.79 168.802C277.61 169.43 275.196 169.763 272.834 169.763C271.355 169.763 269.823 169.602 268.084 169.243L266.735 168.976L266.501 170.336C265.982 173.536 264.399 176.589 261.933 179.137C261.881 179.189 261.803 179.257 261.752 179.322C256.742 183.923 247.321 185.548 240.157 185.548C235.667 185.548 231.437 184.936 228.53 183.882L221.366 181.162L220.977 182.576C220.095 185.722 218.278 188.616 215.968 190.536C215.786 190.682 215.604 190.817 215.397 190.936C210.803 193.711 204.989 195.696 199.046 196.509L198.215 196.631L197.956 197.43C197.021 200.311 195.542 203.483 193.569 206.87C193.128 207.711 189.313 214.604 181.111 214.604Z" fill="#FDFFFC"/>
<path d="M338.962 9.36114C338.352 9.36114 337.741 9.48058 337.131 9.69291L295.991 24.9067C294.691 25.4004 293.655 26.3612 293.071 27.6406C292.461 28.9066 292.408 30.3345 292.912 31.6536L326.302 121.946C327.072 123.988 329.036 125.36 331.265 125.36C331.876 125.36 332.486 125.254 333.044 125.041L374.184 109.827C376.891 108.827 378.298 105.801 377.289 103.094L343.873 12.7877C343.13 10.7467 341.139 9.36114 338.962 9.36114ZM298.805 138.426C297.265 138.426 295.832 137.667 294.956 136.414C293.496 134.294 294.027 131.361 296.151 129.893C303.715 124.627 308.837 121.559 313.827 119.292L314.969 118.775L301.592 82.3991C298.619 74.3197 295.752 66.4793 293.47 60.2924C293.337 59.9075 293.178 59.4536 293.019 59.0263L289.886 50.586L288.878 50.6523C283.702 51.0531 273.298 51.7326 261.619 51.7326C246.517 51.7326 234.016 50.639 224.487 48.5077C222.975 48.1733 221.276 47.1329 215.038 43.1861C204.74 36.6807 193.725 30.0134 190.063 29.6657H189.956C189.956 29.6657 189.532 29.6789 189.346 29.6789C188.284 29.6789 187.249 29.5463 186.347 29.4401C185.789 29.3737 185.312 29.3206 184.754 29.3206C181.091 29.3206 175.942 32.0544 163.547 51.9608L163.441 52.1732L163.388 52.412C161.769 60.8391 164.025 66.7739 166.865 74.2666C168.272 78.0143 169.864 82.2265 171.085 87.0678L171.324 88.0657L172.678 88.079C174.323 88.079 178.464 87.8534 181.728 85.7062C184.568 83.8536 185.975 81.1197 186.055 77.3587C186.214 70.2933 185.789 67.44 185.577 66.5456L185.551 66.3465L185.444 66.174C184.568 64.6134 184.648 62.7209 185.657 61.2531C186.533 59.9606 187.992 59.1988 189.532 59.1988C190.434 59.1988 191.31 59.4536 192.08 59.9473L211.19 72.9873C213.34 74.4391 213.871 77.3587 212.411 79.4927C211.562 80.7853 210.102 81.547 208.562 81.547C207.607 81.547 206.704 81.2657 205.908 80.7323L195.477 73.6137L195.424 77.5737C195.291 84.3472 192.239 90.0272 186.878 93.5467C183.082 96.0416 177.959 97.4668 172.837 97.4668C170.077 97.4668 167.475 97.0263 165.538 96.2406C164.051 95.6275 162.99 94.319 162.725 92.7478C161.636 86.959 159.858 82.2132 158.106 77.6401C155.027 69.4811 151.842 61.0939 154.443 49.3863C154.55 48.8661 154.762 48.3857 155.027 47.9477C169.572 24.3865 176.553 19.9195 184.277 19.9195C185.232 19.9195 186.241 19.9859 187.355 20.1186L187.515 20.1478C188.205 20.2274 188.842 20.307 189.399 20.307C189.505 20.307 189.903 20.307 189.903 20.307C195.345 20.307 204.316 25.3473 220.055 35.266C222.762 36.9859 225.549 38.7324 226.69 39.3455L226.85 39.4411L227.035 39.4808C235.794 41.3733 247.366 42.3474 261.407 42.3474C270.697 42.3474 279.243 41.9068 284.764 41.5458L286.516 41.4264L284.127 34.8944C281.314 27.3459 285.189 18.9189 292.753 16.1187L333.893 0.907593C335.539 0.294476 337.237 -0.00018289 338.962 -0.00018289C345.041 -0.00018289 350.561 3.82715 352.685 9.54692L386.074 99.8397C388.861 107.402 384.986 115.826 377.422 118.613L336.282 133.84C334.663 134.44 332.964 134.748 331.212 134.748C326.435 134.748 321.949 132.359 319.215 128.359L318.578 127.427L317.543 127.894C313.217 129.893 308.413 132.786 301.485 137.588C300.689 138.134 299.76 138.426 298.805 138.426Z" fill="#FDFFFC"/>
</svg>
