<svg width="57" height="75" viewBox="0 0 57 75" fill="none" xmlns="http://www.w3.org/2000/svg">
<path d="M55.9619 42.944C55.4459 40.3835 54.6433 37.9758 53.6879 35.7975C52.7324 33.6191 51.6241 31.6891 50.6113 29.9503C49.5985 28.2114 48.7004 26.6445 48.2418 25.1922C47.7449 23.7591 47.745 22.4597 47.9552 21.4088C48.1654 20.3578 48.6049 19.5935 48.8724 19.0584C49.1782 18.5425 49.3501 18.275 49.3501 18.275L49.3692 18.2368C49.5412 17.9501 49.4647 17.568 49.1781 17.3769C48.8915 17.1858 48.4902 17.2622 48.2991 17.5489C48.2991 17.5489 48.108 17.8355 47.7449 18.3896C47.4201 18.9629 46.9042 19.8228 46.5793 21.0648C46.2544 22.3069 46.1971 23.9693 46.694 25.6508C47.1717 27.3515 48.0507 29.0522 48.9679 30.8484C49.8852 32.6446 50.898 34.5363 51.7388 36.6191C52.5796 38.702 53.2484 40.9568 53.6497 43.3644C54.0701 45.753 54.1847 48.2944 54.0892 50.855C53.9745 53.3964 53.5541 55.9378 52.7133 58.3264C51.8725 60.7149 50.6304 62.9124 49.0061 64.7468C47.401 66.5812 45.4328 68.0335 43.3499 69.0653C39.165 71.1291 34.5979 71.5877 30.9863 71.0335C29.1709 70.7469 27.5657 70.2501 26.3045 69.6004C25.5784 69.2373 24.986 68.8169 24.4892 68.4157C23.3809 68.6259 22.2917 68.7596 21.2598 68.7787H21.2216H21.1833C20.8776 68.7787 20.5719 68.7405 20.2661 68.7214C20.4381 69.008 20.6291 69.2946 20.8776 69.6004C21.7375 70.7469 23.056 71.8552 24.6994 72.7151C26.3428 73.575 28.311 74.2246 30.4894 74.5304C34.8081 75.1418 40.044 74.5686 44.8786 71.9889C47.2672 70.7087 49.5221 68.9316 51.3566 66.7341C53.191 64.5366 54.5478 61.9379 55.4268 59.2245C56.3058 56.5111 56.6689 53.683 56.7071 50.9314C56.7071 48.218 56.4969 45.5237 55.9619 42.944Z" fill="#FDFFFC"/>
<path d="M36.8335 31.0773C34.4831 31.6123 31.9034 31.4594 29.4192 30.4276C25.9031 28.9753 25.0624 25.5549 25.2726 23.109C26.1707 25.1919 27.9669 27.0263 30.4129 28.039C34.9609 29.9308 39.9674 28.2874 41.5917 24.3702C43.2159 20.453 38.8782 18.4848 34.3302 16.593C33.1837 16.1153 32.1327 15.6949 31.1773 15.3892C28.2918 4.97508 24.3553 0.847656 21.2405 0.847656C18.0684 0.847656 14.0555 5.10884 11.1509 15.9051C10.6923 16.0771 10.2337 16.2491 9.73686 16.4402C5.13157 18.1982 0.736473 20.0708 2.2652 24.0262C3.77482 27.9817 8.7432 29.7588 13.3294 28.0008C15.718 27.0836 17.5334 25.383 18.5079 23.4148C19.1194 25.918 17.9346 28.9945 14.2466 30.4085C11.3993 31.4977 8.39921 31.4786 5.83859 30.5422C2.78114 37.9372 -0.161635 45.0838 0.373419 49.8801C1.25244 57.9821 12.7752 66.1031 21.2214 66.2178C29.6677 66.1031 41.1904 57.9821 42.0694 49.8801C42.5853 45.1985 39.7954 38.2812 36.8335 31.0773ZM16.3104 13.8032C15.4696 13.8032 14.8008 13.1344 14.8008 12.2936C14.8008 11.4529 15.4696 10.7841 16.3104 10.7841C17.1512 10.7841 17.82 11.4529 17.82 12.2936C17.8009 13.1153 17.1321 13.8032 16.3104 13.8032ZM24.5846 12.2936C24.5846 11.4529 25.2534 10.7841 26.0942 10.7841C26.9159 10.7841 27.6039 11.4529 27.6039 12.2936C27.6039 13.1344 26.935 13.8032 26.0942 13.8032C25.2725 13.8032 24.5846 13.1153 24.5846 12.2936Z" fill="#FDFFFC"/>
</svg>
