<svg width="41" height="56" viewBox="0 0 41 56" fill="none" xmlns="http://www.w3.org/2000/svg">
<path d="M7.93809 8.27734C7.32295 8.27734 6.8103 8.57296 6.8103 8.9249V12.1768C6.8103 12.5287 7.3083 12.8244 7.93809 12.8244H15.9935C16.6233 12.8244 17.1212 12.5287 17.1212 12.1768V8.9249C17.1212 8.55888 16.6233 8.27734 15.9935 8.27734H7.93809Z" fill="#264653"/>
<path d="M5.14065 11.9661C5.14065 11.9098 5.12599 11.8394 5.12599 11.783V9.09424H2.16748V12.2054H5.15531V11.9661H5.14065Z" fill="#264653"/>
<path d="M11.6876 27.3384C8.45078 27.3384 5.81445 29.8019 5.81445 32.8426C5.81445 33.7436 6.06343 34.5883 6.48816 35.3344L14.9097 28.2534C13.987 27.6762 12.8739 27.3384 11.6876 27.3384Z" fill="#264653"/>
<path d="M8.45068 37.4319C9.37339 38.0091 10.4865 38.3469 11.6875 38.3469C14.9243 38.3469 17.5606 35.8833 17.5606 32.8426C17.5606 31.9276 17.2969 31.0829 16.8868 30.3228L8.45068 37.4319Z" fill="#264653"/>
<path d="M18.6885 17.864V14.7529H5.3605V17.498C2.13835 19.1169 0 21.9184 0 25.114V54.8597C0 55.4791 0.659077 56 1.46462 56H21.94C22.7455 56 23.4046 55.4932 23.4046 54.8597V25.114C23.3899 22.1436 21.5445 19.5111 18.6885 17.864ZM11.6877 41.1623C6.83977 41.1623 2.8853 37.4318 2.8853 32.8425C2.8853 28.2532 6.83977 24.5227 11.6877 24.5227C16.5355 24.5227 20.49 28.2532 20.49 32.8425C20.49 37.4318 16.5502 41.1623 11.6877 41.1623Z" fill="#264653"/>
<path d="M40.98 18.0474L39.9108 17.1041L39.1199 17.8925L38.6219 17.4561L34.1841 21.9187L34.5649 22.2565C34.1255 22.8337 33.3932 24.0444 33.4665 25.79V37.2913C33.4665 37.6573 33.3639 40.9233 30.5812 40.9233C29.8049 40.9233 29.2191 40.7121 28.7651 40.2617C27.7252 39.234 27.7691 37.3476 27.7691 37.2913V14.1197C27.6959 10.8678 25.5429 9.72754 23.7414 9.72754H18.7764V11.5435H23.7414C24.5177 11.5435 25.8212 11.8814 25.8798 14.1338V37.249C25.8798 37.3617 25.8065 39.9238 27.403 41.5145C28.2232 42.3169 29.2923 42.7393 30.5812 42.7393C34.3599 42.7393 35.3558 39.1777 35.3558 37.2913V25.7477C35.3119 24.6497 35.6927 23.8895 35.9709 23.4812L36.3078 23.7769L40.7456 19.3284L40.1744 18.8216L40.98 18.0474Z" fill="#264653"/>
<path d="M6.88364 6.0674C7.00081 6.46157 7.36696 6.72905 7.7917 6.72905H15.7299C16.14 6.72905 16.4915 6.47565 16.6233 6.10963L18.3516 1.1966C18.4541 0.915046 18.3955 0.605317 18.2198 0.380077C18.044 0.14076 17.7511 0 17.4435 0H6.32708C6.03416 0 5.7559 0.140789 5.5655 0.366029C5.38974 0.591269 5.33113 0.886864 5.40436 1.16841L6.88364 6.0674ZM16.14 1.83006L15.0562 4.91304H8.524L7.60129 1.83006H16.14Z" fill="#264653"/>
</svg>
