<svg width="77" height="81" viewBox="0 0 77 81" fill="none" xmlns="http://www.w3.org/2000/svg">
<path d="M33.3721 19.1729C33.3721 19.3066 33.3912 19.4404 33.4294 19.5742L33.5059 19.8034C33.5632 19.9563 33.6205 20.0519 33.6778 20.1856C33.7925 20.4149 33.9072 20.6251 34.0219 20.8162C34.1747 21.0837 34.3658 21.3321 34.5187 21.5806C35.0537 21.2748 35.627 21.0455 36.2576 20.8926L36.2385 20.8735C35.99 20.5487 35.7416 20.2047 35.5314 19.8799C35.4168 19.7079 35.3212 19.555 35.2448 19.3831L35.1684 19.2302C35.5888 18.1793 35.9709 17.1283 36.4296 16.0964L36.4678 16.02V16.0009C36.6398 15.5996 36.4487 15.141 36.0283 14.969C35.627 14.797 35.1493 14.9881 34.9964 15.4085C34.5187 16.5741 33.9454 17.7206 33.4294 18.8672L33.353 19.0391L33.3721 19.1729Z" fill="#FDFFFC"/>
<path d="M38.1115 35.0523H38.2261H38.3408C39.3535 35.1097 40.3281 35.2816 41.2836 35.5109C42.6976 33.7912 43.7869 31.2689 43.7869 28.651C43.7869 24.3898 41.3409 22.4598 38.2452 22.4216C35.1496 22.4407 32.7036 24.3898 32.7036 28.651C32.7036 31.2689 33.7928 33.7912 35.2069 35.5109C36.1241 35.2625 37.0987 35.1097 38.1115 35.0523Z" fill="#FDFFFC"/>
<path d="M40.0221 16.0774C40.4807 17.1093 40.882 18.1602 41.2833 19.2112L41.2068 19.3641C41.1113 19.5169 41.0157 19.6889 40.9202 19.8609C40.71 20.2048 40.4616 20.5297 40.2132 20.8545L40.194 20.8737C40.8246 21.0265 41.3979 21.2749 41.933 21.5615C42.1049 21.3131 42.2769 21.0647 42.4489 20.7972C42.5635 20.6061 42.6782 20.3959 42.7929 20.1666C42.8502 20.0329 42.9075 19.9373 42.9649 19.7845L43.0413 19.5552C43.0795 19.4214 43.0986 19.2876 43.0986 19.1539V18.9819L43.0222 18.8099C42.4871 17.6443 41.933 16.5169 41.4552 15.3513V15.3322C41.2833 14.9309 40.8055 14.7589 40.4043 14.9309C40.003 15.1029 39.8309 15.5806 40.0029 15.9819L40.0221 16.0774Z" fill="#FDFFFC"/>
<path d="M59.6652 27.5996C59.6466 27.6569 59.628 27.6952 59.6094 27.7334L59.6652 27.5996Z" fill="#FDFFFC"/>
<path d="M75.5461 64.6517C75.5652 64.6135 74.8964 64.5943 74.0938 63.5434C73.2912 62.5306 72.546 60.658 71.8772 58.3458C71.1893 56.0337 70.5586 53.2439 69.7942 50.263C68.9917 47.282 68.1127 44.0909 66.5649 41.0336C65.7623 39.524 64.845 38.0335 63.4118 36.8297L62.8386 36.3711L62.3417 36.0462L62.0933 35.8934C61.864 35.7787 61.8258 35.7978 61.692 35.7405L60.985 35.5112C60.0295 35.2055 59.3225 35.2055 58.5008 35.0335C55.386 34.6322 52.5196 34.4794 50.0546 34.3647C49.5768 34.3456 49.1374 34.3265 48.6978 34.3074L50.2839 33.6004C51.8699 32.8551 53.4751 32.1099 55.0421 31.2691C55.8256 30.8487 56.609 30.4092 57.3925 29.8933C57.7746 29.6449 58.1569 29.3583 58.5581 29.0525L59.1314 28.4984C59.3225 28.2882 59.5327 27.9251 59.6856 27.6385C60.0869 26.7786 60.4308 25.8996 60.6792 25.0015C60.8321 24.5429 60.9085 24.0652 61.0232 23.6066C61.1378 23.148 61.2143 22.6703 61.2907 22.2117C61.5965 20.3391 61.7493 18.4664 61.8258 16.6129L61.9786 11.0906C62.0168 10.1733 62.036 9.27524 62.1315 8.39625C62.1698 7.93764 62.2653 7.53637 62.3417 7.11598L62.5328 6.56185C62.6092 6.38987 62.7048 6.31343 62.7812 6.16056L62.915 5.87394C63.0297 5.62553 62.9532 5.31981 62.7239 5.16694C62.4564 4.97585 62.1124 5.05227 61.9213 5.30068C61.7493 5.54909 61.5392 5.81663 61.4245 6.06504L61.1569 6.81027C61.0614 7.28798 60.9277 7.76569 60.8703 8.24341C60.7175 9.17972 60.6601 10.116 60.5837 11.0332L60.2206 16.5365C60.0678 18.3518 59.8575 20.148 59.4945 21.906C59.3989 22.3455 59.3225 22.7849 59.1887 23.2053C59.055 23.6257 58.9785 24.0652 58.8256 24.4665C58.5581 25.3073 58.2142 26.0716 57.832 26.836L57.7747 26.9697C57.6791 27.027 57.6982 27.0653 57.6027 27.1608L57.2205 27.4856C56.9147 27.6958 56.5899 27.9251 56.2459 28.1353C55.5389 28.5557 54.7936 28.9379 54.0292 29.3201C52.5005 30.0653 50.9145 30.7532 49.3094 31.4029L45.5449 32.9316C45.6786 32.7787 45.8315 32.6258 45.9653 32.473C47.2074 31.0207 48.4303 29.2245 49.596 27.199C50.1692 26.1863 50.7234 25.1353 51.2585 24.027C51.526 23.4729 51.7744 22.9187 52.0037 22.3264C52.233 21.7149 52.4623 21.1989 52.6343 20.3773C52.6725 20.1862 52.6916 19.804 52.6725 19.7085L52.6343 19.2499L52.5579 18.3518C52.5005 17.7403 52.4815 17.1671 52.405 16.5556C52.1757 15.3517 52.0419 14.1097 51.7362 13.0014C51.2202 10.7466 50.5323 8.72112 49.9591 7.02046C49.3667 5.3007 48.9462 3.90576 48.736 2.91212C48.6405 2.4153 48.6405 2.05224 48.6023 1.80383C48.5832 1.55541 48.5641 1.40256 48.5641 1.40256L48.5449 1.24969C48.5067 0.943956 48.2392 0.695548 47.9144 0.714657C47.5895 0.733765 47.322 1.0204 47.3411 1.34524C47.3411 1.34524 47.3411 1.51722 47.3602 1.82295C47.3793 2.12869 47.3793 2.60638 47.4748 3.14141C47.6659 4.2306 48.0481 5.72108 48.5641 7.45995C49.0609 9.19882 49.6342 11.2052 50.0546 13.3645C50.3221 14.4537 50.3603 15.5428 50.5514 16.6702C50.6088 17.2435 50.6087 17.855 50.6278 18.4473L50.6661 19.3454C50.6661 19.6512 50.7043 19.9951 50.647 20.0142C50.4176 20.8359 49.8444 22.0397 49.3284 23.0143C48.7934 24.027 48.2201 25.0206 47.6277 25.957C46.978 26.9888 46.3092 27.9442 45.6404 28.8041C45.6022 31.422 44.6276 34.059 43.1753 36.0845C46.0799 37.1736 48.5641 39.0463 50.475 41.4922C52.3859 42.2756 54.4306 43.2119 56.3797 44.4158C57.6982 45.2374 59.0932 46.3457 59.4945 47.4731C59.7811 48.8489 59.7429 50.7025 59.5709 52.4031C59.227 55.8809 58.367 59.3395 57.5262 62.5689C56.6663 65.7982 55.8064 68.8364 55.2331 71.4925C54.6598 74.1486 54.3732 76.4416 54.6407 78.1231C54.7745 78.9639 55.0803 79.6136 55.3669 80.0149C55.6726 80.397 55.8828 80.5882 55.8828 80.5882C56.093 80.7601 56.3988 80.741 56.5899 80.5308C56.7619 80.3206 56.7428 79.9958 56.5326 79.8238C56.5708 79.8047 55.8638 79.4225 55.6345 77.9703C55.3669 76.5372 55.73 74.3206 56.3797 71.76C57.0294 69.1804 58.004 66.1995 58.9594 62.9701C59.9149 59.7408 60.9277 56.263 61.4054 52.6133C61.6156 50.7598 61.8066 48.9827 61.4436 46.8999C61.0996 45.7343 60.3926 44.9699 59.7238 44.282C59.0358 43.6132 58.3097 43.0591 57.5836 42.5622C54.6599 40.5941 51.7171 39.3329 49.2138 38.2628C48.029 37.7851 46.9589 37.3647 45.9653 37.0017C47.1118 36.9826 48.4685 36.9635 50.0354 36.9826C52.4623 37.0017 55.3096 37.0972 58.2715 37.3647C58.9594 37.4794 59.8384 37.5176 60.3735 37.6896L60.813 37.8042C60.8512 37.8042 61.0232 37.8807 60.9658 37.8233L61.2143 37.9762L61.7303 38.2819L62.1124 38.5877C63.1825 39.4093 64.0997 40.7087 64.845 42.0463C66.3546 44.7788 67.3292 47.8744 68.2082 50.7789C69.0681 53.7025 69.7942 56.4732 70.5777 58.8236C71.3421 61.1739 72.1829 63.1421 73.1957 64.365C73.6734 64.9956 74.2658 65.3587 74.648 65.588C75.0875 65.7599 75.3359 65.8364 75.3359 65.8364C75.6417 65.9128 75.9474 65.7217 76.0238 65.416C76.0429 65.0338 75.8518 64.7281 75.5461 64.6517Z" fill="#FDFFFC"/>
<path d="M16.8416 27.715C16.8231 27.6768 16.8047 27.6386 16.8047 27.6004V27.5813L16.8416 27.715Z" fill="#FDFFFC"/>
<path d="M19.0022 62.5488C18.1614 59.3194 17.3015 55.8417 16.9575 52.383C16.7855 50.6824 16.7664 48.8288 17.034 47.453C17.4353 46.3256 18.8493 45.2174 20.1488 44.3957C22.0979 43.1727 24.1425 42.2555 26.0535 41.4721C27.9644 39.0262 30.4486 37.1345 33.3531 36.0644C31.9008 34.058 30.9263 31.421 30.888 28.7841C30.2192 27.9242 29.5504 26.9687 28.9007 25.9369C28.3083 25.0006 27.7351 24.026 27.2 22.9942C26.6841 22.0196 26.1108 20.8158 25.8815 19.9941C25.8242 19.9559 25.8623 19.6311 25.8623 19.3253L25.9006 18.4272C25.9388 17.8349 25.9197 17.2234 25.977 16.6502C26.149 15.5228 26.2063 14.4336 26.4739 13.3444C26.8751 11.166 27.4675 9.15962 27.9644 7.43985C28.4803 5.72009 28.8625 4.21053 29.0536 3.12135C29.1491 2.5672 29.13 2.10859 29.1682 1.80286C29.1874 1.49712 29.1873 1.32514 29.1873 1.32514C29.2064 1.01941 28.9771 0.732777 28.6523 0.69456C28.3274 0.656343 28.0217 0.904751 27.9835 1.2296L27.9644 1.38247C27.9644 1.38247 27.9453 1.51624 27.9262 1.78376C27.8879 2.05128 27.8879 2.41434 27.7924 2.89205C27.5631 3.86659 27.1426 5.2806 26.5694 7.00037C25.9961 8.72013 25.3082 10.7456 24.7922 12.9813C24.4865 14.0896 24.3527 15.3126 24.1234 16.5355C24.0279 17.147 24.0279 17.7202 23.9706 18.3317L23.8941 19.2298L23.8559 19.6884C23.8368 19.7839 23.8559 20.1661 23.8941 20.3572C24.0661 21.1789 24.2954 21.6948 24.5247 22.3063C24.7541 22.8795 25.0024 23.4528 25.27 24.0069C25.7859 25.1152 26.3401 26.1662 26.9325 27.1789C28.079 29.1853 29.3211 30.9815 30.5632 32.4529C30.6969 32.6249 30.8498 32.7586 30.9836 32.9115L27.2191 31.3828C25.633 30.714 24.0279 30.0452 22.4991 29.3C21.7348 28.9178 20.9896 28.5356 20.2825 28.1153C19.9386 27.9051 19.6137 27.6758 19.3079 27.4656L18.9257 27.1407C18.8302 27.0452 18.8493 27.007 18.7538 26.9496L18.6964 26.8159C18.3143 26.0706 17.9703 25.2872 17.7028 24.4464C17.5499 24.0451 17.4544 23.6056 17.3397 23.1853C17.2059 22.7649 17.1295 22.3254 17.034 21.8859C16.6709 20.147 16.4607 18.3317 16.3078 16.5164L15.9447 11.0132C15.8683 10.096 15.811 9.15963 15.6581 8.22331C15.6008 7.76471 15.467 7.26788 15.3715 6.79017L15.1039 6.04494C14.9893 5.79653 14.7791 5.52903 14.6071 5.28061C14.4543 5.05131 14.1485 4.97487 13.9 5.08952C13.6134 5.22328 13.4988 5.56725 13.6325 5.85388L13.7663 6.14049C13.8428 6.29336 13.9383 6.36981 14.0148 6.54178L14.2058 7.09592C14.2822 7.5163 14.3778 7.93668 14.416 8.37618C14.5116 9.25517 14.5498 10.1724 14.5689 11.0705L14.7218 16.5928C14.7982 18.4464 14.9511 20.319 15.2568 22.1916C15.3333 22.6502 15.4097 23.1279 15.5243 23.5865C15.639 24.0452 15.7155 24.5229 15.8683 24.9815C16.1168 25.8796 16.4607 26.7586 16.862 27.6184C17.0149 27.9242 17.2251 28.2681 17.4162 28.4783L17.9894 29.0325C18.3716 29.3382 18.7538 29.6248 19.155 29.8732C19.9385 30.3701 20.7029 30.8287 21.5055 31.249C23.0724 32.0898 24.6585 32.835 26.2636 33.5803L27.8497 34.2873C27.4102 34.3064 26.9707 34.3255 26.493 34.3446C24.0279 34.4593 21.1615 34.6312 18.0467 35.0134C17.225 35.1854 16.5371 35.1854 15.5626 35.4911L14.8555 35.7204C14.7217 35.7777 14.6835 35.7586 14.4542 35.8733L14.2058 36.0453L13.709 36.3701L13.1357 36.8287C11.7025 38.0326 10.7662 39.523 9.9827 41.0326C8.43487 44.0899 7.55585 47.3002 6.75326 50.262C5.96979 53.2429 5.3392 56.0136 4.67038 58.3449C4.00156 60.657 3.23719 62.5296 2.45372 63.5424C1.67025 64.5933 0.982302 64.6125 1.00141 64.6507C0.695666 64.7271 0.504631 65.0328 0.581067 65.3386C0.657503 65.6443 0.963221 65.8354 1.26897 65.759C1.26897 65.759 1.51736 65.6825 1.95687 65.5105C2.35816 65.3004 2.93145 64.9182 3.40917 64.2876C4.42196 63.0647 5.26275 61.0965 6.02711 58.7462C6.81058 56.3958 7.53677 53.6251 8.39668 50.7015C9.27569 47.797 10.2502 44.7014 11.7598 41.9689C12.5051 40.6313 13.4224 39.3319 14.4925 38.5103L14.8746 38.2236L15.3906 37.9179L15.639 37.765C15.6008 37.8224 15.7537 37.7459 15.7919 37.7459L16.2314 37.6313C16.7855 37.4593 17.6645 37.4211 18.3334 37.3064C21.2953 37.0389 24.1425 36.9434 26.5694 36.9243C28.1363 36.9052 29.4931 36.9243 30.6396 36.9434C29.6459 37.3064 28.5759 37.7268 27.3911 38.2045C24.8687 39.2555 21.945 40.5358 19.0213 42.5039C18.2952 43.0008 17.569 43.5549 16.8811 44.2237C16.2123 44.9116 15.5052 45.676 15.1612 46.8416C14.7982 48.9435 14.9893 50.7015 15.1995 52.555C15.6963 56.2047 16.69 59.7016 17.6455 62.9118C18.62 66.1412 19.5755 69.1221 20.2252 71.7017C20.8749 74.2623 21.238 76.4789 20.9704 77.912C20.7411 79.3642 20.0341 79.7464 20.0723 79.7655C19.8621 79.9375 19.843 80.2623 20.015 80.4725C20.187 80.6827 20.5118 80.7018 20.722 80.5298C20.722 80.5298 20.9322 80.3578 21.238 79.9566C21.5246 79.5553 21.8303 78.9056 21.9641 78.0648C22.2316 76.3833 21.9641 74.0712 21.3717 71.4342C20.7029 68.8163 19.843 65.7972 19.0022 62.5488Z" fill="#FDFFFC"/>
<path d="M38.226 36.8477C46.806 37.3636 52.5196 45.007 52.5196 53.2427C52.5196 60.4275 45.8505 68.1091 38.226 69.3894C30.6015 68.1091 23.9324 60.4466 23.9324 53.2427C23.9324 44.9879 29.646 37.3636 38.226 36.8477Z" fill="#FDFFFC"/>
</svg>
