<svg width="307" height="276" viewBox="0 0 307 276" fill="#FDFFFC" xmlns="http://www.w3.org/2000/svg">
<path d="M11.2001 263.936H73.7618V202.81H11.2001V263.936ZM79.3617 275.141H5.60018C2.49818 275.141 0 272.635 0 269.538V197.207C0 194.11 2.49818 191.604 5.60018 191.604H79.3617C82.4637 191.604 84.9619 194.11 84.9619 197.207V269.538C84.9619 272.635 82.4637 275.141 79.3617 275.141Z" fill="#FDFFFC"/>
<path d="M84.9752 263.933H147.536V151.029H84.9752V263.933ZM153.117 275.14H79.3664C76.2691 275.14 73.7578 272.631 73.7578 269.537V145.423C73.7578 142.329 76.2691 139.823 79.3664 139.823H153.117C156.214 139.823 158.725 142.329 158.725 145.423V269.537C158.725 272.631 156.214 275.14 153.117 275.14Z" fill="#FDFFFC"/>
<path d="M232.499 263.936H295.043V108.29H232.499V263.936ZM300.661 275.143H226.881C223.799 275.143 221.264 272.637 221.264 269.54V102.687C221.264 99.5929 223.799 97.0836 226.881 97.0836H300.661C303.744 97.0836 306.25 99.5929 306.25 102.687V269.54C306.25 272.637 303.744 275.143 300.661 275.143Z" fill="#FDFFFC"/>
<path d="M158.725 263.929H221.308V178.967H158.725V263.929ZM226.923 275.135H153.139C150.048 275.135 147.524 272.626 147.524 269.529V173.364C147.524 170.27 150.048 167.76 153.139 167.76H226.923C230.014 167.76 232.509 170.27 232.509 173.364V269.529C232.509 272.626 230.014 275.135 226.923 275.135Z" fill="#FDFFFC"/>
<path d="M269.362 11.3443C269.362 10.7612 269.247 10.184 269.047 9.62094C269.018 9.52376 268.99 9.43216 268.933 9.34069C268.733 8.85764 268.504 8.38886 268.161 7.96012C268.133 7.92296 268.075 7.89728 268.047 7.86299C267.989 7.80296 267.932 7.75435 267.875 7.69718C267.475 7.25129 267.018 6.87704 266.532 6.59407C266.503 6.58549 266.475 6.56831 266.475 6.55973C265.903 6.25104 265.274 6.06216 264.645 5.96212C264.617 5.9564 264.588 5.93092 264.559 5.92806L222.257 0.0571449C219.17 -0.38303 216.341 1.76918 215.912 4.83611C215.483 7.90305 217.627 10.73 220.685 11.1559L250.182 15.2487L173.809 76.8276L105.325 44.0688C103.638 43.2656 101.695 43.3458 100.094 44.2776L19.6621 90.8846C16.9753 92.4338 16.0606 95.8637 17.6041 98.5419C18.6617 100.334 20.5481 101.337 22.4632 101.337C23.4064 101.337 24.3785 101.091 25.2645 100.58L103.153 55.4561L172.151 88.4609C174.095 89.3898 176.41 89.124 178.097 87.772L258.186 23.1947V55.5106C258.186 58.6061 260.701 61.1127 263.788 61.1127C266.875 61.1127 269.39 58.6061 269.39 55.5106V11.4788C269.39 11.4331 269.362 11.39 269.362 11.3443Z" fill="#FDFFFC"/>
</svg>
