<svg width="64" height="81" viewBox="0 0 64 81" fill="none" xmlns="http://www.w3.org/2000/svg">
<path d="M31.3451 25.1469C29.3004 24.9941 27.2748 24.5546 26.1665 23.3699C17.2808 34.1471 20.3382 69.3449 30.7336 71.8481C30.9056 71.8863 31.0011 70.7589 31.3451 69.1156V25.1469Z" fill="#FDFFFC"/>
<path d="M22.7459 23.4079C23.0517 23.5608 23.3765 23.6563 23.6632 23.8283L23.7205 23.8665C24.2364 23.0257 24.7906 22.3187 25.383 21.669C25.3639 21.4779 25.3065 21.3251 25.3065 21.134C25.3065 21.0958 25.3065 21.0576 25.3065 21.0193L24.9435 20.8665C24.5422 20.6945 24.1218 20.6181 23.7205 20.4843C23.3192 20.3505 22.8988 20.2741 22.4975 20.1977C22.0962 20.1021 21.6758 20.0639 21.2554 20.0257C21.1408 20.0066 21.0261 20.0066 20.9114 19.9875L20.0898 17.1403C19.7458 15.8218 19.249 14.5798 18.8286 13.3186V13.2995C18.7903 13.1657 18.6948 13.032 18.5801 12.9364C17.9495 12.4587 17.338 11.9619 16.6692 11.5224L14.6819 10.1848C14.3379 9.95549 13.8793 10.051 13.65 10.3759C13.4207 10.7198 13.4971 11.1785 13.8411 11.4269L13.9366 11.4842L15.7902 12.7645C16.3444 13.1275 16.8603 13.5479 17.3954 13.9683C17.6438 15.1912 17.9304 16.3951 18.0642 17.618L18.6184 21.4588C18.6948 21.9939 19.1152 22.4524 19.6693 22.548L19.8605 22.5862C20.128 22.6435 20.4911 22.6818 20.8159 22.7773C21.1408 22.8537 21.4847 22.9493 21.8096 23.0639C22.1153 23.1595 22.4402 23.255 22.7459 23.4079Z" fill="#FDFFFC"/>
<path d="M15.733 33.4971C15.2744 33.5927 14.8922 33.9366 14.7585 34.4334L13.4973 39.2679C13.0769 40.873 12.5991 42.459 12.1405 44.0641C12.045 44.4845 11.8921 44.8093 11.7583 45.1915L11.357 46.2998L11.2042 46.7393H11.1851C10.8793 46.7775 10.478 46.7584 10.0767 46.7011C8.49068 46.5291 6.8282 46.2043 5.26125 45.7265H5.24214H5.22303C4.93639 45.6501 4.63065 45.8221 4.55421 46.1278C4.47778 46.4145 4.64976 46.7202 4.9555 46.7966C6.59888 47.217 8.18494 47.7138 9.88565 48.0387C10.3252 48.1151 10.7456 48.1916 11.2615 48.1916H11.4717C11.5481 48.1916 11.7201 48.1533 11.8539 48.096C11.9685 48.0578 12.1596 47.9622 12.1596 47.9431L12.217 47.9049L12.2552 47.8858C12.3125 47.8094 12.1214 48.0578 12.408 47.7138V47.6947L12.6947 47.1024L13.268 45.8985C13.4399 45.4972 13.6692 45.0769 13.803 44.6947C14.3954 43.1278 15.0451 41.5609 15.6184 39.994L17.0133 36.115L19.9752 35.7901C20.1281 34.6627 20.3001 33.5926 20.5103 32.5608L15.733 33.5544V33.4971Z" fill="#FDFFFC"/>
<path d="M20.5296 76.1858V76.1476L20.5105 76.052L20.4914 75.8418L20.3194 74.1794C20.2048 73.0711 20.1092 71.9437 19.9372 70.8927L19.4786 67.7016C18.9053 63.555 18.2556 59.4276 17.6059 55.2811C17.6059 55.262 17.6059 55.262 17.6441 55.2428C17.7015 55.1664 17.8161 55.0136 17.969 54.8798C18.2365 54.5932 18.6187 54.2874 18.9818 53.9817C19.3066 53.7333 19.6315 53.4849 19.9755 53.2365C19.8226 51.918 19.727 50.5995 19.6506 49.281C19.5933 49.3192 19.5359 49.3575 19.4786 49.4148C18.6187 50.0645 17.7588 50.7333 16.8989 51.4976C16.4785 51.8989 16.039 52.281 15.6186 52.797C15.4084 53.0454 15.1982 53.3129 14.988 53.6951C14.7969 54.0199 14.5676 54.5549 14.5485 55.2237C14.5485 55.3193 14.5485 55.4148 14.5676 55.5104C15.4848 59.6951 16.4021 63.899 17.2429 68.1028L17.8926 71.2558C18.1219 72.3259 18.2747 73.3195 18.4467 74.3514L18.7142 75.88L18.7525 76.0711C18.7143 76.1667 18.6569 76.224 18.6378 76.224C18.5805 76.2622 18.5805 76.2622 18.5232 76.3386L18.2747 76.6253C17.5868 77.4087 16.8416 78.173 16.0963 78.9374C15.8288 79.224 15.8097 79.6635 16.0772 79.9693C16.3447 80.275 16.8225 80.2941 17.1282 80.0266C17.9308 79.3005 18.7334 78.5743 19.5168 77.7909L19.8035 77.4851C19.9181 77.3705 20.0901 77.1603 20.2048 76.9883C20.3576 76.7782 20.4341 76.6444 20.4914 76.5488L20.5105 76.5106C20.5678 75.9183 20.5105 76.3195 20.5296 76.1858Z" fill="#FDFFFC"/>
<path d="M63.4482 22.6055C63.3718 21.6309 63.2189 20.6564 63.0087 19.6628C62.6648 17.6755 62.0342 15.6691 61.2698 13.6627C60.4099 11.7136 59.4353 9.76456 58.0977 8.00657C56.7792 6.2677 55.2504 4.66259 53.4733 3.38232C51.6962 2.12116 49.7088 1.16575 47.473 0.860018C45.3902 0.554282 43.1735 1.0702 41.4537 1.94919C39.6956 2.82818 38.2816 4.03203 37.1541 5.25498C34.8802 7.71997 33.619 10.2041 32.8737 11.9811C32.6253 12.5735 32.4342 13.1085 32.2813 13.5289C32.1285 13.0894 31.9374 12.5735 31.6889 11.9811C30.9437 10.2041 29.6634 7.71997 27.4085 5.25498C26.2811 4.03203 24.867 2.82818 23.109 1.94919C21.3891 1.0702 19.1725 0.554282 17.0896 0.860018C14.8538 1.16575 12.8856 2.12116 11.0893 3.38232C9.3122 4.66259 7.76437 6.24859 6.46495 8.00657C5.14643 9.76456 4.15275 11.7136 3.29284 13.6627C2.54759 15.65 1.89788 17.6564 1.55392 19.6628C1.34372 20.6564 1.19084 21.6309 1.1144 22.6055C0.99975 23.5609 0.923317 24.5163 0.923317 25.4335C0.808662 27.2871 0.980644 29.0259 1.05708 30.6119C1.26728 32.1979 1.43927 33.6884 1.7068 34.9687C2.03165 36.2298 2.22274 37.3572 2.52849 38.2553C3.13998 40.0324 3.50304 41.0452 3.50304 41.0452C3.57948 41.2745 3.82789 41.3891 4.03809 41.3127C4.2674 41.2363 4.38207 40.9878 4.30563 40.7776L4.28652 40.7394C4.28652 40.7394 3.94256 39.7458 3.35018 38.026C3.06354 37.1661 2.85333 36.0579 2.54759 34.8158C2.28006 33.5738 2.1463 32.1406 1.95521 30.5928C1.91699 28.9877 1.74502 27.3062 1.917 25.51C1.93611 24.6119 2.03165 23.6946 2.16541 22.7583C2.26096 21.822 2.43294 20.8666 2.64314 19.9112C3.00621 17.9812 3.67503 16.0895 4.4394 14.1977C5.2993 12.3633 6.29298 10.5289 7.57328 8.90468C8.85359 7.29956 10.325 5.84734 11.9684 4.71994C13.5926 3.61165 15.4653 2.80908 17.1852 2.618C20.9114 2.1785 24.0262 4.31866 26.0327 6.53524C28.0773 8.79004 29.243 11.1022 29.9118 12.7455C30.2366 13.5672 30.466 14.1786 30.5997 14.6754C30.6188 14.7328 30.6188 14.771 30.6379 14.8283C31.7081 14.599 32.8355 14.6372 33.8483 14.8474C33.8674 14.7901 33.8674 14.7519 33.8865 14.6945C34.0203 14.1977 34.2496 13.5863 34.5744 12.7646C35.2432 11.1404 36.428 8.80914 38.4536 6.55434C40.46 4.33776 43.5748 2.1976 47.3011 2.63709C49.0209 2.82818 50.8936 3.63075 52.5178 4.73904C54.1612 5.86644 55.6326 7.29958 56.9129 8.9238C58.1932 10.5289 59.1678 12.3633 60.0468 14.2168C60.8112 16.1086 61.48 18.0194 61.8431 19.9303C62.0533 20.8857 62.2444 21.822 62.3208 22.7583C62.4546 23.6946 62.5501 24.6119 62.5692 25.51C62.7221 27.3062 62.5692 28.9877 62.531 30.5928C62.3399 32.1406 62.2062 33.5738 61.9386 34.8158C61.6329 36.0579 61.4227 37.147 61.136 38.026C60.5437 39.7458 60.1997 40.7394 60.1997 40.7394L60.1806 40.7776C60.1042 41.007 60.2188 41.2363 60.4481 41.3127C60.6774 41.3891 60.9067 41.2745 60.9832 41.0452C60.9832 41.0452 61.3271 40.0324 61.9577 38.2553C62.2635 37.3572 62.4546 36.2298 62.7794 34.9687C63.0661 33.6884 63.238 32.1979 63.4291 30.6119C63.4865 29.045 63.6584 27.2871 63.5629 25.4335C63.6393 24.5163 63.5629 23.58 63.4482 22.6055Z" fill="#FDFFFC"/>
<path d="M59.321 45.7077C57.754 46.1854 56.0915 46.5102 54.4864 46.6822C54.0851 46.7204 53.6838 46.7395 53.378 46.7204H53.3589L53.2061 46.281L52.8048 45.1727C52.671 44.7905 52.5181 44.4656 52.4226 44.0452C51.964 42.4401 51.4862 40.8732 51.0658 39.249L49.8046 34.4146C49.69 33.956 49.3269 33.5929 48.8301 33.4782H48.811L44.0337 32.4846C44.2439 33.5165 44.4159 34.5865 44.5688 35.7139L47.5307 36.0388L48.9256 39.9178C49.4989 41.4847 50.1295 43.0516 50.741 44.6185C50.8747 45.0007 51.1041 45.4211 51.276 45.8223L51.8493 47.0262L52.136 47.6185V47.6376C52.4226 47.9625 52.2124 47.7332 52.2888 47.8096L52.327 47.8287L52.3844 47.8669C52.3844 47.886 52.5755 47.9816 52.6901 48.0198C52.8048 48.058 52.9959 48.1153 53.0723 48.1153H53.2825C53.8176 48.1153 54.2379 48.058 54.6775 47.9625C56.3782 47.6376 57.9642 47.1408 59.6076 46.7204C59.6076 46.7204 59.6267 46.7204 59.6458 46.7204C59.9325 46.6249 60.1044 46.3192 60.0089 46.0325C59.9325 45.7841 59.6076 45.6121 59.321 45.7077Z" fill="#FDFFFC"/>
<path d="M48.9828 52.7775C48.5624 52.2616 48.1229 51.8794 47.7025 51.4781C46.8426 50.7138 45.9827 50.045 45.1227 49.3953C45.0463 49.338 44.989 49.2998 44.9126 49.2424C44.817 50.5418 44.7024 51.8603 44.5495 53.1597C44.9126 53.4272 45.2756 53.6756 45.6196 53.9431C45.9827 54.2489 46.3648 54.5546 46.6324 54.8412C46.7661 54.975 46.8999 55.1279 46.9572 55.2043C46.9954 55.2425 46.9763 55.2425 46.9954 55.2425C46.3648 59.389 45.7151 63.4974 45.1227 67.663L44.6641 70.8541C44.4921 71.9051 44.3966 73.0516 44.282 74.1408L44.11 75.8032L44.0909 76.0134L44.0718 76.109V76.1281V76.1472C44.0909 76.281 44.0335 75.8797 44.11 76.4338L44.1291 76.472C44.1864 76.5676 44.2628 76.7014 44.4157 76.9115C44.5304 77.0835 44.7023 77.2937 44.817 77.4083L45.1036 77.7141C45.8871 78.4975 46.6897 79.2237 47.4923 79.9498C47.7789 80.1982 48.2375 80.1982 48.5242 79.9307C48.8108 79.644 48.8108 79.1663 48.5242 78.8797C47.7789 78.1154 47.0337 77.3511 46.3457 76.5676L46.0973 76.2809C46.04 76.2045 46.0209 76.1854 45.9827 76.1663C45.9444 76.1663 45.9062 76.109 45.868 76.0134L45.9062 75.8223L46.1737 74.2937C46.3457 73.2618 46.4986 72.2681 46.7279 71.1981L47.3776 68.0452C48.2184 63.8413 49.1548 59.6374 50.0529 55.4527C50.072 55.3571 50.0911 55.2616 50.072 55.1661C50.0529 54.4973 49.8427 53.9622 49.6325 53.6374C49.4032 53.2934 49.193 53.0259 48.9828 52.7775Z" fill="#FDFFFC"/>
<path d="M33.2561 25.1848V69.2108H33.1987C33.5236 70.7777 33.6765 71.9051 33.8293 71.8668C44.2438 69.3827 47.3012 34.0703 38.3773 23.3313C37.2116 24.5734 35.1479 25.1275 33.2561 25.1848Z" fill="#FDFFFC"/>
<path d="M37.498 21.1152C37.498 18.8222 35.0711 16.2234 32.3003 16.4336C32.243 16.4336 32.1857 16.4336 32.1283 16.4336C28.8416 16.4336 27.1027 19.3954 27.1027 21.1152C27.1027 22.4719 31.2302 23.1789 32.3003 23.1789C33.3704 23.1789 37.498 22.4719 37.498 21.1152Z" fill="#FDFFFC"/>
<path d="M44.9315 22.5485C45.4665 22.4529 45.906 22.0326 45.9825 21.4593L46.5366 17.6185C46.6895 16.3956 46.9761 15.1917 47.2054 13.9688C47.7405 13.5484 48.2564 13.128 48.8106 12.7649L50.6642 11.4847L50.7597 11.4274C51.1037 11.1981 51.1801 10.7394 50.9508 10.3955C50.7215 10.0515 50.2438 9.95598 49.8998 10.1853L47.9125 11.5229C47.2246 11.9624 46.6322 12.4592 46.0016 12.9369C45.8869 13.0325 45.7914 13.1471 45.7531 13.3V13.3191C45.3136 14.5803 44.8359 15.8414 44.492 17.1408L43.6703 19.988C43.5556 19.988 43.441 20.0071 43.3263 20.0262C42.9059 20.0644 42.5046 20.1217 42.0842 20.1981C41.6829 20.2746 41.2625 20.351 40.8612 20.4848C40.4599 20.6185 40.0395 20.695 39.6382 20.867L39.2752 21.0198C39.2752 21.058 39.2752 21.0963 39.2752 21.1345C39.2752 21.3256 39.2178 21.4975 39.1987 21.6695C39.7911 22.3192 40.3644 23.0262 40.8803 23.867L40.9377 23.8288C41.2243 23.6568 41.5491 23.5613 41.8549 23.4084C42.1606 23.2555 42.4855 23.16 42.8103 23.0644C43.1352 22.9498 43.4601 22.8733 43.804 22.7778C44.1289 22.6823 44.492 22.6249 44.7595 22.5867L44.9315 22.5485Z" fill="#FDFFFC"/>
</svg>
