<svg width="53" height="62" viewBox="0 0 53 62" fill="none" xmlns="http://www.w3.org/2000/svg">
<path d="M23.7637 37.8017L18.083 33.1922C17.611 32.8101 16.8856 32.851 16.4748 33.2837C16.0553 33.7172 16.099 34.3795 16.5709 34.7616L23.1607 40.1025C23.3617 40.2727 23.6326 40.365 23.9123 40.365C23.9472 40.365 23.9822 40.3634 24.0171 40.361C24.323 40.3353 24.6114 40.1932 24.8037 39.9676L37.1005 25.7023C37.4938 25.2488 37.4064 24.5905 36.917 24.2317C36.4275 23.8728 35.7021 23.9483 35.3175 24.4019L23.7637 37.8017Z" fill="#E76F51"/>
<path d="M50.7206 32.9983C50.7206 36.4099 49.8902 41.6417 48.3529 44.6191C45.9852 49.2155 39.1117 59.9063 26.4956 59.9063C13.8883 59.9063 7.01483 49.2155 4.63827 44.6191C3.10985 41.6425 2.27945 36.4099 2.27945 32.9983V11.404C6.2021 11.3618 18.7387 10.5714 26.6016 2.54073C35.2686 9.45641 47.0895 10.9966 50.7206 11.3156V32.9983ZM51.9133 9.30062C51.7631 9.29413 36.8058 8.5191 27.2819 0.280666C27.2731 0.27174 27.2554 0.266056 27.2466 0.25713C27.2377 0.249016 27.2289 0.238499 27.2112 0.230385C27.1935 0.216587 27.1759 0.206856 27.1582 0.194683C27.1229 0.172771 27.0963 0.152485 27.0522 0.13382C27.0257 0.117588 26.9903 0.103771 26.9638 0.090786C26.9285 0.0761795 26.8931 0.0623856 26.8578 0.0518379C26.8225 0.0412865 26.7872 0.0339775 26.7518 0.0266762C26.7165 0.0185585 26.6811 0.0112762 26.6369 0.00721741C26.6016 0.00316238 26.5663 0.00234222 26.531 0.000720978C26.4956 -9.15527e-05 26.4602 -0.000900269 26.4161 0.00234604C26.3895 0.00396729 26.3542 0.00880814 26.3189 0.0136795C26.2836 0.0193596 26.2394 0.0258713 26.2041 0.0347977C26.1687 0.0429115 26.1422 0.0534706 26.1068 0.0648346C26.0715 0.0761948 26.0362 0.0891571 26.0009 0.104576C25.9655 0.119183 25.939 0.136234 25.9037 0.1549C25.8771 0.17194 25.8418 0.189789 25.8153 0.210888C25.78 0.2328 25.7535 0.257133 25.727 0.282291C25.7093 0.29771 25.6828 0.309093 25.6651 0.325325C25.6563 0.335064 25.6563 0.346432 25.6475 0.355358C25.6387 0.36591 25.621 0.37318 25.6121 0.383732C17.2721 9.83051 1.35172 9.30792 1.1927 9.30062C0.88348 9.28439 0.574262 9.39231 0.353392 9.59031C0.123687 9.78751 0 10.061 0 10.3466V32.9983C0 36.7296 0.883497 42.2276 2.57978 45.515C5.13304 50.4717 12.5808 62 26.4956 62C40.4192 62 47.8581 50.4717 50.4202 45.515C52.1165 42.226 53 36.7288 53 32.9983V10.3466C53 9.78831 52.5229 9.32821 51.9133 9.30062Z" fill="#E76F51"/>
<path d="M42.9782 32.3861C42.9782 34.7204 42.407 38.2936 41.3701 40.3195C39.7445 43.4569 35.0608 50.7535 26.502 50.7535C17.9432 50.7535 13.2509 43.4569 11.634 40.3195C10.5883 38.2944 10.0259 34.7204 10.0259 32.3861V17.7025C13.0838 17.6283 21.256 16.9156 26.6075 11.6699C32.4335 16.1778 40.1487 17.3369 42.9782 17.6162V32.3861ZM27.2138 9.38088C27.1963 9.36716 27.1786 9.35828 27.1611 9.34537C27.1259 9.32358 27.0908 9.30259 27.0557 9.28483C27.0293 9.26869 26.9942 9.25495 26.9678 9.24203C26.9327 9.22751 26.8974 9.21298 26.8535 9.20168C26.8184 9.19199 26.792 9.18474 26.7569 9.17748C26.7129 9.16941 26.6778 9.16216 26.6427 9.15813C26.6075 9.15409 26.5723 9.15328 26.5372 9.15166C26.5021 9.15086 26.4581 9.15003 26.423 9.15245C26.3878 9.15487 26.3526 9.15971 26.3263 9.16455C26.2823 9.1694 26.2472 9.17668 26.2033 9.18556C26.1769 9.19363 26.1417 9.20411 26.1066 9.2146C26.0714 9.22752 26.0364 9.24046 26.0012 9.25579C25.9661 9.27032 25.9397 9.28724 25.9133 9.30418C25.8782 9.32275 25.843 9.34133 25.8166 9.36232C25.7815 9.3833 25.7551 9.40672 25.7288 9.43093C25.7112 9.44707 25.6848 9.45919 25.6672 9.47614C25.6584 9.48663 25.6585 9.49792 25.6497 9.50842C25.6321 9.5181 25.6233 9.52454 25.6145 9.53423C19.9379 15.9664 9.04173 15.6129 8.93628 15.6088C8.61994 15.5983 8.32996 15.7008 8.10149 15.8986C7.87302 16.0963 7.75 16.3691 7.75 16.6549V32.3861C7.75 35.0126 8.37388 38.8893 9.57774 41.2155C11.3791 44.7128 16.6339 52.8472 26.502 52.8472C36.3614 52.8472 41.625 44.7136 43.4264 41.2155C44.6215 38.8885 45.2541 35.0126 45.2541 32.3861V16.6549C45.2541 16.0963 44.7796 15.6363 44.1645 15.6088C44.0678 15.604 33.8131 15.0833 27.2841 9.43172C27.2753 9.42284 27.2577 9.4164 27.2489 9.40752C27.2402 9.39945 27.2314 9.38976 27.2138 9.38088Z" fill="#E76F51"/>
</svg>
