<svg width="299" height="293" viewBox="0 0 299 293" fill="none" xmlns="http://www.w3.org/2000/svg">
<path d="M93.5904 8.56371C83.3689 8.56371 73.0562 14.937 73.0562 29.1588C73.0562 42.9852 82.8518 55.5796 93.5904 55.5796C104.344 55.5796 114.14 42.9852 114.14 29.1588C114.14 14.937 103.827 8.56371 93.5904 8.56371ZM93.5904 64.1431C78.0909 64.1431 64.4927 47.7917 64.4927 29.1588C64.4927 12.2751 76.7371 0.000212154 93.5904 0.000212154C110.459 0.000212154 122.703 12.2751 122.703 29.1588C122.703 47.7917 109.105 64.1431 93.5904 64.1431Z" fill="#FDFFFC"/>
<path d="M70.0736 156.968C70.0736 157.26 70.0428 157.568 69.9658 157.922L69.858 158.368L69.9658 158.815C70.0428 159.169 70.0889 159.477 70.0889 159.769V175.1L71.0894 273.808C71.1048 274.209 71.0586 274.624 70.9355 275.024C69.858 278.841 72.0899 282.859 75.9071 283.967C76.8306 284.213 77.8619 284.352 78.9085 284.352C81.4482 284.352 84.6343 283.536 85.958 281.258L86.2197 280.812L89.1134 181.933C89.1749 179.625 91.0528 177.793 93.377 177.778C95.7012 177.778 97.5791 179.594 97.6714 181.903L101.35 279.842L101.55 280.227C102.197 281.52 103.459 282.643 105.075 283.398C106.383 284.013 107.876 284.336 109.308 284.336C110.108 284.336 110.862 284.244 111.555 284.029C113.602 283.444 115.172 282.228 116.126 280.535C117.05 278.842 117.281 276.887 116.742 275.009C116.65 274.624 116.588 274.224 116.588 273.824L117.035 157.183L117.081 156.983L117.035 156.768L117.05 111.146C117.05 108.791 118.974 106.867 121.329 106.867C122.483 106.867 123.545 107.313 124.361 108.114C125.161 108.929 125.608 110.007 125.608 111.146V156.968C125.608 157.429 125.654 157.968 125.762 158.676L125.793 158.815C126.193 160.508 127.039 162.032 128.301 163.232C130.087 164.941 132.396 165.895 134.812 165.895C135.459 165.895 136.09 165.818 136.705 165.695C140.707 164.833 143.724 160.846 143.724 156.414V101.988C143.724 89.7817 133.796 79.8384 121.59 79.8384H65.8408C65.7638 79.823 65.6714 79.8076 65.5636 79.8076C65.4559 79.8076 65.3789 79.7922 65.2866 79.7768C65.1019 79.7614 64.9172 79.7307 64.7325 79.6691C64.6556 79.6537 64.5786 79.6229 64.5017 79.6075C64.3016 79.5306 64.1169 79.4689 63.9629 79.392C63.8706 79.3458 63.7935 79.2997 63.7166 79.2535C63.5473 79.1612 63.3934 79.0533 63.2395 78.9302L63.1472 78.8687L63.0394 78.8071L26.7604 49.193C24.8364 47.6846 22.4353 46.8534 19.9571 46.8534C16.5709 46.8534 13.431 48.3309 11.2915 50.9168C11.1991 51.0245 11.1068 51.1476 10.9836 51.3016C9.152 53.6104 8.30538 56.5041 8.61322 59.444C8.93645 62.4146 10.3988 65.0928 12.7384 66.9553L68.4266 112.162C68.5036 112.239 68.5651 112.3 68.6267 112.362C68.7498 112.454 68.8575 112.562 68.9499 112.685C69.0422 112.777 69.1346 112.885 69.2115 112.993C69.2885 113.101 69.3809 113.208 69.4424 113.331C69.504 113.454 69.5963 113.578 69.6425 113.701C69.6887 113.824 69.7502 113.947 69.7964 114.086C69.8426 114.209 69.8889 114.347 69.9197 114.486C69.9505 114.609 69.9812 114.732 69.9966 114.871C70.0274 115.024 70.0428 115.178 70.0428 115.317C70.0582 115.425 70.0582 115.517 70.0736 115.625V156.968ZM78.9393 292.925C77.1077 292.925 75.3068 292.679 73.5829 292.202C65.5329 289.893 60.6536 281.689 62.4852 273.547L62.5315 273.316L61.5155 175.146V159.769C61.5155 159.477 61.5618 159.169 61.6233 158.815L61.7311 158.384L61.6233 157.937C61.5464 157.568 61.5155 157.26 61.5155 156.968V117.564L7.36652 73.62C3.24147 70.3261 0.671064 65.6162 0.116952 60.3675C-0.452552 55.1034 1.07123 49.9626 4.3959 45.8529C4.3959 45.8529 4.62681 45.5604 4.65759 45.5142L4.59596 45.5912C8.33622 40.9736 13.9389 38.3261 19.9571 38.3261C24.4362 38.3261 28.6228 39.773 32.1168 42.5128L67.3645 71.2805H121.59C138.506 71.2805 152.282 85.0563 152.282 101.988V156.414C152.282 164.925 146.479 172.36 138.491 174.068C137.275 174.315 136.044 174.453 134.812 174.453C132.596 174.453 130.41 174.037 128.317 173.222L125.608 172.16V175.084L125.146 273.3L125.208 273.516C126.054 277.318 125.5 281.289 123.607 284.691C121.56 288.369 118.189 291.047 114.125 292.186C112.525 292.648 110.862 292.879 109.2 292.879C103.905 292.879 98.8411 290.586 95.655 286.738L94.0388 284.783L92.5151 286.799C89.6214 290.632 84.542 292.925 78.9393 292.925Z" fill="#FDFFFC"/>
<path d="M175.272 22.5973C165.472 22.5973 155.624 28.6912 155.624 42.2926C155.624 55.5327 164.985 67.595 175.272 67.595C185.544 67.595 194.905 55.5327 194.905 42.2926C194.905 28.6912 185.041 22.5973 175.272 22.5973ZM175.272 76.1548C160.241 76.1548 147.048 60.3388 147.048 42.2926C147.048 25.9269 158.922 14.0376 175.272 14.0376C191.591 14.0376 203.464 25.9269 203.464 42.2926C203.464 60.3388 190.287 76.1548 175.272 76.1548Z" fill="#FDFFFC"/>
<path d="M188.218 277.254C183.431 277.254 179.103 275.447 176.377 272.293L174.919 270.613L173.397 272.245C172.097 273.656 170.48 274.813 168.641 275.669C166.438 276.684 163.981 277.223 161.556 277.223C160.097 277.223 158.686 277.032 157.371 276.652L157.07 276.573C149.762 274.48 145.419 267.062 147.067 259.627L147.115 259.421L147.337 183.809C147.337 181.447 149.271 179.529 151.617 179.529C152.774 179.545 153.852 179.989 154.644 180.797C155.469 181.606 155.897 182.684 155.897 183.825L155.675 259.992C155.675 260.388 155.627 260.769 155.516 261.149C154.644 264.24 156.42 267.474 159.511 268.362L159.844 268.457C160.398 268.631 160.937 268.695 161.508 268.695C162.681 268.695 163.933 268.409 165.043 267.902C166.232 267.347 167.199 266.523 167.738 265.603L168.007 265.175L171.257 179.228C171.336 176.914 173.206 175.107 175.537 175.107C177.867 175.122 179.737 176.945 179.801 179.26L182.337 266.063L182.733 266.57C183.922 268.124 186.363 268.679 188.266 268.679C189.137 268.679 189.978 268.568 190.77 268.346C193.83 267.474 195.605 264.24 194.749 261.149C194.622 260.753 194.575 260.341 194.575 259.944L195.478 173.22V159.921C195.494 159.731 195.51 159.366 195.51 159.366C195.526 159.255 195.526 159.128 195.557 159.001L195.637 158.557L195.557 158.177C195.51 157.876 195.478 157.606 195.478 157.353L195.462 113.999C195.462 111.637 197.38 109.719 199.742 109.719C202.104 109.719 204.022 111.637 204.022 113.999L204.038 157.353C204.038 157.606 204.006 157.86 203.959 158.161L203.879 158.589L203.975 159.017C204.307 160.317 205.005 161.538 205.972 162.473C207.43 163.884 209.348 164.66 211.314 164.66C211.837 164.66 212.376 164.597 212.883 164.502C216.164 163.804 218.637 160.507 218.637 156.846V109.069C218.637 98.6544 210.157 90.1737 199.742 90.142H163.806C161.445 90.142 159.527 88.224 159.527 85.8621C159.527 83.5002 161.445 81.5822 163.806 81.5822H199.71C214.896 81.6139 227.197 93.9465 227.197 109.069V156.846C227.197 164.581 221.934 171.318 214.674 172.872C213.581 173.094 212.455 173.22 211.33 173.22C209.887 173.22 208.349 172.951 206.606 172.428L204.054 171.635L203.15 259.453L203.182 259.675C204.815 267.062 200.376 274.496 193.084 276.589C191.515 277.032 189.882 277.254 188.218 277.254Z" fill="#FDFFFC"/>
<path d="M246.87 22.5991C237.085 22.5991 227.237 28.6859 227.237 42.2964C227.237 55.5356 236.601 67.5962 246.87 67.5962C257.154 67.5962 266.518 55.5356 266.518 42.2964C266.518 28.6859 256.654 22.5991 246.87 22.5991ZM246.87 76.1694C231.854 76.1694 218.664 60.3307 218.664 42.2964C218.664 25.925 230.53 14.0421 246.87 14.0421C263.209 14.0421 275.075 25.925 275.075 42.2964C275.075 60.3307 261.901 76.1694 246.87 76.1694Z" fill="#FDFFFC"/>
<path d="M259.84 277.263C255.035 277.263 250.717 275.455 247.997 272.294L246.531 270.617L245.016 272.246C243.696 273.663 242.1 274.82 240.242 275.667C238.043 276.693 235.599 277.231 233.172 277.231C231.722 277.231 230.305 277.035 228.985 276.66L228.676 276.563C221.378 274.494 217.028 267.081 218.673 259.653L218.722 259.441L218.657 184.291C218.657 181.945 220.579 180.023 222.941 180.006C225.304 180.006 227.226 181.929 227.242 184.291L227.291 259.978C227.291 260.369 227.242 260.777 227.128 261.151C226.249 264.247 228.04 267.489 231.136 268.368L231.445 268.466C232.016 268.629 232.537 268.694 233.123 268.694C234.296 268.694 235.534 268.417 236.642 267.896C237.848 267.342 238.809 266.527 239.363 265.615L239.623 265.175L242.865 179.224C242.947 176.911 244.82 175.103 247.15 175.103C249.479 175.119 251.353 176.944 251.402 179.257L253.959 266.071L254.334 266.576C255.523 268.124 257.983 268.678 259.873 268.678C260.753 268.678 261.6 268.564 262.382 268.352C265.461 267.472 267.236 264.247 266.357 261.151C266.243 260.76 266.178 260.353 266.178 259.946L267.09 173.229V159.92C267.106 159.724 267.122 159.626 267.122 159.512C267.139 159.252 267.139 159.121 267.171 158.991L267.188 158.861V158.828L267.253 158.567L267.171 158.176C267.122 157.883 267.09 157.622 267.09 157.346L267.074 113.995C267.074 111.633 268.996 109.711 271.358 109.711C273.72 109.711 275.643 111.633 275.643 113.995V157.346C275.643 157.59 275.626 157.867 275.561 158.16L275.496 158.584L275.594 159.007C275.92 160.327 276.62 161.549 277.581 162.461C279.047 163.878 280.953 164.66 282.925 164.66C283.446 164.66 283.984 164.611 284.489 164.497C287.779 163.797 290.256 160.522 290.256 156.857V109.059C290.256 98.6657 281.768 90.178 271.358 90.1454H233.384C231.022 90.1454 229.099 88.2231 229.099 85.8609C229.099 83.4988 231.022 81.5765 233.384 81.5765H271.326C286.509 81.6253 298.808 93.9576 298.808 109.059V156.857C298.808 164.579 293.546 171.323 286.281 172.871C285.189 173.099 284.065 173.213 282.941 173.213C281.507 173.213 279.96 172.952 278.217 172.431L275.659 171.649L274.763 259.457L274.812 259.669C276.425 267.065 271.977 274.494 264.695 276.595C263.131 277.035 261.486 277.263 259.84 277.263Z" fill="#FDFFFC"/>
</svg>
