<svg width="57" height="74" viewBox="0 0 57 74" fill="none" xmlns="http://www.w3.org/2000/svg">
<path d="M55.6518 42.0963C55.1359 39.5357 54.3333 37.128 53.3778 34.9497C52.4224 32.7713 51.314 30.8414 50.3012 29.1025C49.2885 27.3636 48.3903 25.7967 47.9317 24.3445C47.4349 22.9113 47.4349 21.6119 47.6451 20.561C47.8553 19.51 48.2948 18.7457 48.5624 18.2106C48.8681 17.6947 49.0401 17.4272 49.0401 17.4272L49.0592 17.389C49.2311 17.1024 49.1547 16.7202 48.8681 16.5291C48.5814 16.338 48.1801 16.4144 47.989 16.7011C47.989 16.7011 47.7979 16.9877 47.4349 17.5418C47.11 18.1151 46.5941 18.975 46.2692 20.217C45.9444 21.4591 45.8871 23.1215 46.3839 24.8031C46.8616 26.5037 47.7406 28.2044 48.6579 30.0006C49.5751 31.7968 50.5879 33.6885 51.4287 35.7714C52.2695 37.8542 52.9383 40.109 53.3396 42.5167C53.76 44.9052 53.8746 47.4466 53.7791 50.0072C53.6644 52.5486 53.244 55.09 52.4032 57.4786C51.5624 59.8672 50.3203 62.0646 48.6961 63.8991C47.0909 65.7335 45.1227 67.1857 43.0398 68.2176C38.8549 70.2813 34.2878 70.7399 30.6762 70.1857C28.8609 69.8991 27.2557 69.4023 25.9945 68.7526C25.2683 68.3895 24.676 67.9692 24.1791 67.5679C23.0708 67.7781 21.9816 67.9118 20.9497 67.931H20.9115H20.8733C20.5675 67.931 20.2618 67.8927 19.9561 67.8736C20.128 68.1602 20.3191 68.4469 20.5675 68.7526C21.4274 69.8991 22.7459 71.0074 24.3893 71.8673C26.0327 72.7272 28.0009 73.3769 30.1794 73.6826C34.498 74.2941 39.7339 73.7208 44.5685 71.1412C46.9571 69.8609 49.212 68.0838 51.0465 65.8863C52.881 63.6889 54.2377 61.0901 55.1168 58.3767C55.9958 55.6633 56.3588 52.8352 56.397 50.0836C56.397 47.3702 56.1869 44.6759 55.6518 42.0963Z" fill="#264653"/>
<path d="M36.5235 30.2296C34.173 30.7647 31.5933 30.6118 29.1091 29.5799C25.5931 28.1277 24.7523 24.7073 24.9625 22.2614C25.8606 24.3442 27.6569 26.1786 30.1028 27.1914C34.6508 29.0831 39.6573 27.4398 41.2816 23.5225C42.9059 19.6053 38.5681 17.6371 34.0202 15.7454C32.8736 15.2677 31.8226 14.8473 30.8672 14.5415C27.9817 4.12742 24.0452 0 20.9304 0C17.7583 0 13.7454 4.26119 10.8409 15.0575C10.3822 15.2295 9.92364 15.4014 9.4268 15.5925C4.82151 17.3505 0.426415 19.2231 1.95514 23.1786C3.46476 27.134 8.43314 28.9111 13.0193 27.1531C15.408 26.2359 17.2233 24.5353 18.1979 22.5671C18.8094 25.0703 17.6246 28.1468 13.9365 29.5608C11.0893 30.65 8.08915 30.6309 5.52853 29.6946C2.47108 37.0896 -0.471694 44.2362 0.0633607 49.0324C0.942379 57.1344 12.4652 65.2555 20.9114 65.3701C29.3576 65.2555 40.8803 57.1344 41.7593 49.0324C42.2753 44.3508 39.4854 37.4335 36.5235 30.2296ZM16.0003 12.9556C15.1595 12.9556 14.4907 12.2868 14.4907 11.446C14.4907 10.6052 15.1595 9.93641 16.0003 9.93641C16.8411 9.93641 17.51 10.6052 17.51 11.446C17.4909 12.2676 16.822 12.9556 16.0003 12.9556ZM24.2745 11.446C24.2745 10.6052 24.9434 9.93641 25.7842 9.93641C26.6059 9.93641 27.2938 10.6052 27.2938 11.446C27.2938 12.2868 26.625 12.9556 25.7842 12.9556C24.9625 12.9556 24.2745 12.2676 24.2745 11.446Z" fill="#264653"/>
</svg>
