<svg width="90" height="120" viewBox="0 0 90 120" fill="none" xmlns="http://www.w3.org/2000/svg">
<path d="M84.9507 85.6177L73.5478 77.4283C70.7712 75.4342 68.6123 76.8766 66.222 81.2595C60.9718 90.882 58.4242 92.7837 51.9823 87.9909C45.9708 83.5187 41.6669 78.2112 36.2663 71.0174C30.868 63.8267 26.881 58.0908 23.5236 50.0833C19.9278 41.5025 21.3532 38.109 28.5772 31.1156C31.8676 27.9317 32.9504 25.056 31.4533 21.3574L25.3077 6.16844C22.7971 -0.291798 19.2337 -1.02845 13.965 1.34483C6.69933 4.6181 -0.332606 18.5958 0.0237342 25.2317C1.06499 44.6155 8.35146 67.9044 23.5144 88.0988C38.6751 108.296 56.1588 117.999 70.7109 119.389C75.6904 119.864 86.1145 110.405 88.5719 100.727C90.3536 93.7084 89.8006 88.9618 84.9507 85.6177Z" fill="#FDFFFC"/>
<path d="M50.837 27.121C48.4328 27.1487 46.5008 29.7655 46.5216 32.9648C46.5401 36.1487 48.4861 38.7131 50.8718 38.7131C50.9134 38.71 50.9527 38.7131 50.9897 38.7131C53.579 38.7131 56.0039 40.0446 57.8273 42.4703C59.6691 44.9237 60.6711 48.1969 60.648 51.6859C60.6272 54.8852 62.5616 57.5051 64.9634 57.5298H65.0003C67.386 57.5298 69.332 54.9654 69.3505 51.7815C69.3922 45.161 67.4832 38.9411 63.98 34.2747C60.4791 29.6083 55.7401 27.1611 50.837 27.121ZM76.8151 17.181C69.8827 7.94679 60.5461 2.87046 50.8555 2.93518C48.4514 2.94751 46.5101 5.54887 46.5193 8.75125C46.5286 11.9475 48.4746 14.5272 50.8718 14.5272C50.8995 14.5211 50.9504 14.5242 50.9897 14.5272C58.422 14.5272 65.4077 18.3769 70.6602 25.3765C75.9382 32.4038 78.8305 41.7583 78.8051 51.7137C78.7958 54.9161 80.7396 57.5205 83.1414 57.5328H83.1575C85.5547 57.5328 87.5007 54.95 87.51 51.7569C87.5447 38.6884 83.7452 26.409 76.8151 17.181Z" fill="#FDFFFC"/>
</svg>
