<svg width="57" height="80" viewBox="0 0 57 80" fill="none" xmlns="http://www.w3.org/2000/svg">
<path d="M10.2937 16.873L14.4404 28.2235L14.536 28.5101L14.8226 28.7203L21.3388 33.2872C21.3388 33.1344 21.3388 32.9815 21.3388 32.8286C21.3388 32.0261 21.5108 31.2808 21.7974 30.5738L16.2366 27.1343L11.5167 16.166L11.4212 15.9367L11.2301 15.8221L8.34458 14.1787C8.07705 14.0259 7.71401 14.1023 7.54203 14.3698C7.37005 14.6565 7.44648 15.0195 7.714 15.2106L10.2937 16.873Z" fill="#FDFFFC"/>
<path d="M17.0779 1.45235C17.1543 1.70076 17.1734 2.0065 17.1734 2.36956C17.1926 2.73262 17.2117 3.13389 17.1734 3.6116C17.1543 4.07021 17.1352 4.58613 17.1161 5.10206C17.097 5.61799 17.097 6.22947 17.1352 6.84094C17.1925 7.47152 17.3836 8.15942 17.6894 8.73268C17.976 9.32504 18.3008 9.86008 18.6257 10.3951C19.6576 12.0958 20.6704 13.7582 21.5303 15.1914C21.7978 14.8283 22.0845 14.4843 22.4093 14.1786C21.5685 12.841 20.5748 11.3123 19.6003 9.80276C18.9315 8.7518 18.3008 7.75815 18.2053 6.7263C18.148 6.17215 18.1289 5.65621 18.148 5.12117C18.1671 4.58614 18.1671 4.08931 18.1862 3.6116C18.2053 3.153 18.1862 2.7135 18.148 2.31222C18.148 1.91095 18.1098 1.56699 18.0143 1.28036C17.8805 0.707109 17.804 0.382277 17.804 0.382277C17.7467 0.152975 17.5174 0.000106394 17.2881 0.0383234C17.0397 0.0765404 16.8868 0.324948 16.925 0.573359L16.9441 0.668893C16.925 0.668893 16.9823 0.955527 17.0779 1.45235Z" fill="#FDFFFC"/>
<path d="M35.4993 30.5543C35.7859 31.2422 35.9579 31.9874 35.9579 32.8091C35.9579 32.962 35.9579 33.1149 35.9579 33.2677L42.4741 28.7008L42.7607 28.4906L42.8563 28.204L47.0029 16.8535L49.5827 15.1911C49.8502 15.0191 49.9457 14.656 49.7738 14.3885C49.6018 14.1019 49.2387 14.0064 48.952 14.1592L46.0666 15.8026L45.8755 15.9172L45.78 16.1465L41.06 27.1148L35.4993 30.5543Z" fill="#FDFFFC"/>
<path d="M35.805 15.1919C36.6458 13.7587 37.6777 12.0963 38.7096 10.3956C39.0344 9.86059 39.3593 9.32555 39.6459 8.73319C39.9325 8.15993 40.1427 7.47203 40.2001 6.84145C40.2383 6.22998 40.2383 5.6185 40.2192 5.10257C40.2001 4.56753 40.181 4.07072 40.1619 3.61211C40.1237 3.1344 40.1428 2.73313 40.1619 2.37007C40.1619 2.00701 40.181 1.70127 40.2574 1.45286C40.3529 0.956038 40.4103 0.669403 40.4103 0.669403L40.4294 0.57387C40.4676 0.344568 40.3338 0.0961493 40.0854 0.0579323C39.837 0.000606857 39.6077 0.153475 39.5504 0.401886C39.5504 0.401886 39.4739 0.726732 39.3401 1.29999C39.2637 1.58661 39.2255 1.93057 39.2064 2.33185C39.1873 2.73313 39.1491 3.17262 39.1682 3.63123C39.1682 4.08983 39.1873 4.60576 39.2064 5.1408C39.2255 5.67584 39.2064 6.21087 39.1491 6.7459C39.0535 7.77776 38.4229 8.7523 37.7541 9.82237C36.7795 11.3319 35.7859 12.8797 34.9451 14.1982C35.2699 14.4657 35.5566 14.8097 35.805 15.1919Z" fill="#FDFFFC"/>
<path d="M46.7924 65.5043L44.1935 48.6888L44.1362 48.3258L43.8114 48.0582L35.9575 41.6187C36.1295 42.9945 36.4162 44.2556 36.7601 45.4404L42.2253 49.4914L45.5885 65.8482L45.6267 66.0011L45.7032 66.0966C46.7733 67.5871 47.8433 69.0584 48.8943 70.5489C49.0472 70.7591 49.3339 70.8164 49.5441 70.6827C49.7734 70.5298 49.8307 70.2432 49.6778 70.0139C48.7033 68.5043 47.7479 66.9947 46.7924 65.5043Z" fill="#FDFFFC"/>
<path d="M56.4807 50.485L52.8882 49.434L43.4483 37.109L43.1234 36.7078H42.5502L35.862 36.746C35.8238 37.6823 35.8047 38.5422 35.8047 39.3256L42.1107 38.9435L51.971 50.4468L52.1238 50.6187L52.3149 50.6569L56.194 51.5742C56.4807 51.6506 56.7864 51.4786 56.8629 51.192C56.9393 50.8863 56.7673 50.5614 56.4807 50.485Z" fill="#FDFFFC"/>
<path d="M20.556 45.4211C20.9 44.2363 21.1866 42.9752 21.3586 41.5994L13.5048 48.0389L13.1799 48.3064L13.1225 48.6695L10.5429 65.485C9.58741 66.9754 8.63194 68.485 7.65738 69.9564C7.52361 70.1666 7.56183 70.4532 7.77203 70.606C7.98223 70.7589 8.28798 70.7016 8.44086 70.4914C9.49186 69.0009 10.5619 67.5296 11.632 66.0391L11.7085 65.9436L11.7467 65.7907L15.1099 49.4338L20.556 45.4211Z" fill="#FDFFFC"/>
<path d="M21.5109 39.3068C21.5109 38.5234 21.4727 37.6635 21.4536 36.7272L14.7654 36.689H14.1922L13.8673 37.0903L4.4274 49.4152L0.834879 50.4662C0.548242 50.5426 0.376296 50.8484 0.452732 51.135C0.529168 51.4407 0.834867 51.6318 1.1215 51.5554L5.00065 50.6382L5.19175 50.5999L5.34465 50.428L15.2049 38.9247L21.5109 39.3068Z" fill="#FDFFFC"/>
<path d="M38.0785 58.8161C37.7536 52.3766 34.2566 48.4402 33.4923 41.3319C33.263 39.0962 33.5687 36.1726 33.5687 32.8095C33.5687 31.4337 32.7471 30.2107 31.6196 29.2553C32.9955 26.561 34.7535 24.631 34.7535 22.0514C34.7535 19.8539 34.7152 16.6628 32.1164 15.1915C32.3266 14.7902 32.5177 14.3316 32.6133 13.8348C32.6515 13.5672 32.6897 13.1851 32.6515 12.9749C32.5941 12.6309 32.5368 12.3061 32.3075 11.9812C32.0782 11.6755 31.696 11.4462 31.3521 11.408C31.0081 11.3698 30.7597 11.4462 30.5495 11.5226C30.1291 11.6946 29.8998 11.9621 29.7278 12.115C29.5558 12.287 29.4985 12.4207 29.4985 12.4207C29.4985 12.4207 29.6322 12.4207 29.8616 12.4016C30.0909 12.3825 30.4157 12.3825 30.7215 12.4016C30.8744 12.4207 31.0272 12.4398 31.1036 12.5163C31.1801 12.5736 31.1992 12.6118 31.2183 12.6882C31.2565 12.7647 31.2756 12.9175 31.2947 13.0513C31.3138 13.3188 31.3138 13.4335 31.2947 13.6628C31.2183 14.064 31.161 14.5035 31.0272 14.9048C30.282 14.9622 29.4412 15.3825 28.6959 15.6309C27.9316 15.4016 27.0908 14.9813 26.3646 14.9048C26.2117 14.5035 26.1544 14.064 26.078 13.6628C26.0589 13.4526 26.0589 13.3379 26.078 13.0513C26.0971 12.9175 26.1162 12.7647 26.1544 12.6882C26.1735 12.6118 26.1926 12.5736 26.269 12.5163C26.3455 12.4398 26.4984 12.4207 26.6512 12.4016C26.957 12.3825 27.2819 12.3825 27.5112 12.4016C27.7405 12.4207 27.8742 12.4207 27.8742 12.4207C27.8742 12.4207 27.8169 12.287 27.6449 12.115C27.4729 11.943 27.2436 11.6946 26.8232 11.5226C26.613 11.4271 26.3646 11.3698 26.0206 11.408C25.6958 11.4271 25.2945 11.6564 25.0652 11.9621C24.8167 12.287 24.7786 12.6118 24.7021 12.9558C24.6639 13.1659 24.7021 13.5481 24.7403 13.8156C24.8359 14.3316 25.027 14.7711 25.2372 15.1723C22.6192 16.6437 22.6001 19.8348 22.6001 22.0323C22.6001 24.6119 24.3581 26.5419 25.734 29.2362C24.6066 30.1916 23.7849 31.4146 23.7849 32.7904C23.7849 36.1535 24.1098 39.0771 23.8613 41.3127C23.097 48.4211 19.6191 52.3766 19.2751 58.797C18.7018 70.0328 24.7786 79.5871 28.6959 79.5871C32.5751 79.6062 38.6518 70.071 38.0785 58.8161Z" fill="#FDFFFC"/>
</svg>
