<svg width="64" height="70" viewBox="0 0 64 70" fill="none" xmlns="http://www.w3.org/2000/svg">
<path d="M35.9073 2.52348C35.9837 2.84833 36.1175 3.15405 36.2513 3.44068C36.4806 4.05215 36.8436 4.58719 37.1685 5.14134C37.7418 6.02033 38.3724 6.8229 39.0603 7.60635C39.0221 7.64456 39.0221 7.66368 38.9647 7.7019C38.7928 7.87387 38.5826 8.04585 38.3532 8.23693C37.9137 8.59999 37.4169 8.94394 36.9201 9.307C36.6525 9.51719 36.3659 9.72738 36.0793 9.95668C36.6526 10.6446 37.1112 11.3707 37.436 12.0969C37.7609 11.7529 38.0666 11.428 38.4106 11.0841C38.8501 10.6446 39.2896 10.2051 39.7482 9.72739C39.9775 9.47898 40.2068 9.23057 40.417 8.92484C40.5317 8.79108 40.6463 8.6 40.7419 8.3898L40.8948 8.02674C40.933 7.85476 40.9712 7.66368 40.9712 7.4917L40.9903 7.07131L40.6655 6.82289C39.8055 6.15409 38.9647 5.27512 38.2768 4.35791C37.9711 3.8802 37.6462 3.40249 37.436 2.86745C37.1494 2.37063 37.073 1.81647 36.9392 1.30054L36.901 1.1668C36.901 1.1668 36.901 1.16678 36.901 1.14767C36.7863 0.784607 36.4232 0.574433 36.0602 0.689084C35.6971 0.784626 35.4869 1.16677 35.6016 1.52983L35.9073 2.52348Z" fill="#FDFFFC"/>
<path d="M22.6837 8.04485L22.8366 8.40792C22.9512 8.599 23.0659 8.79009 23.1614 8.94296C23.3907 9.24869 23.62 9.4971 23.8302 9.74551C24.2889 10.2232 24.7284 10.6627 25.1679 11.1022C25.5118 11.4462 25.8367 11.771 26.1424 12.115C26.4864 11.408 26.9259 10.6627 27.4992 9.97483C27.2125 9.76464 26.945 9.53533 26.6584 9.34425C26.1615 8.98118 25.6647 8.61813 25.2252 8.27417C24.9959 8.1022 24.7857 7.91109 24.6137 7.73911C24.5755 7.70089 24.5564 7.68181 24.5182 7.64359C25.2252 6.86014 25.8367 6.03846 26.4099 5.17858C26.7157 4.62443 27.0788 4.0894 27.3272 3.47793C27.461 3.17219 27.6138 2.88557 27.6711 2.56073L27.9578 1.6053V1.5862C28.0533 1.22314 27.8431 0.840968 27.4801 0.745425C27.117 0.649883 26.7348 0.860076 26.6393 1.22314L26.601 1.35688C26.4673 1.89192 26.3909 2.42697 26.1042 2.92379C25.894 3.43972 25.5692 3.91743 25.2634 4.41425C24.5946 5.33146 23.7538 6.21044 22.8748 6.87923L22.5499 7.12765L22.569 7.54804C22.6264 7.6818 22.6455 7.87288 22.6837 8.04485Z" fill="#FDFFFC"/>
<path d="M36.4424 26.6187C36.7099 27.4595 36.9201 28.5104 37.073 29.9436C37.1876 29.7716 37.3023 29.5996 37.417 29.4276L40.1878 25.8926C41.1241 24.7078 42.156 23.5804 43.1306 22.4339C44.0669 21.2683 45.1179 20.3702 46.1116 19.3193C48.1945 18.8798 50.22 18.3638 52.2456 17.695C53.2966 17.332 54.3476 16.9498 55.3604 16.453C55.8763 16.2046 56.3732 15.937 56.87 15.6313C57.3668 15.3256 57.8255 14.9243 58.2841 14.4466C58.2841 14.4466 58.3032 14.4275 58.3032 14.4084C58.5134 14.16 58.4752 13.7778 58.2268 13.5676C57.9783 13.3574 57.5962 13.3956 57.386 13.644L57.3477 13.7014C57.0611 14.0453 56.6789 14.351 56.2585 14.5995C55.819 14.867 55.3413 15.0772 54.8636 15.2874C53.889 15.6886 52.8762 15.9944 51.8443 16.281C49.7806 16.8351 47.6403 17.2555 45.5383 17.5612H45.481C45.3472 17.5804 45.2326 17.6377 45.137 17.7332C43.9714 18.8033 42.672 19.8352 41.6592 20.9626C40.5891 22.09 39.4807 23.16 38.4488 24.3448L36.4424 26.6187Z" fill="#FDFFFC"/>
<path d="M6.74704 15.6503C7.24388 15.9561 7.7407 16.2427 8.25665 16.472C9.28854 16.9497 10.3204 17.351 11.3714 17.7141C13.397 18.3829 15.4226 18.8988 17.5055 19.3383C18.4991 20.3702 19.531 21.2874 20.4865 22.453C21.461 23.6186 22.512 24.7269 23.4293 25.9116L26.2001 29.4467C26.3148 29.6186 26.4294 29.7906 26.5441 29.9626C26.6969 28.5486 26.9262 27.4785 27.1747 26.6377L25.2064 24.402C24.1745 23.2173 23.0662 22.1472 21.9961 21.0198C20.9642 19.8924 19.6648 18.8606 18.5182 17.7905C18.4227 17.695 18.308 17.6376 18.1743 17.6185H18.1169C16.0149 17.3128 13.8747 16.8924 11.8109 16.3382C10.779 16.0516 9.76629 15.7268 8.79173 15.3446C8.314 15.1344 7.83625 14.9242 7.39674 14.6567C6.95723 14.3892 6.57507 14.0835 6.30754 13.7586L6.26931 13.7013C6.26931 13.7013 6.25022 13.6822 6.25022 13.6631C6.02091 13.4147 5.63872 13.4146 5.40941 13.6248C5.16099 13.8541 5.16099 14.2363 5.37119 14.4656C5.79159 14.9433 6.25021 15.3255 6.74704 15.6503Z" fill="#FDFFFC"/>
<path d="M48.6722 59.3707C48.5576 58.4535 48.3665 57.6319 48.2709 56.6382L47.9461 53.6382L47.411 47.5999V47.5426C47.3919 47.2751 47.2391 47.0075 47.0097 46.8356L43.895 44.5617L42.328 43.4343C41.8121 43.033 41.277 42.7464 40.7419 42.4215L36.9201 40.1094C36.7099 41.1603 36.4042 42.0393 36.0793 42.7846L39.4616 44.6572C39.9967 44.9629 40.57 45.2305 41.0477 45.5935L42.5382 46.6063L45.1944 48.3834L45.9014 53.9057L46.3409 56.9249C46.4747 57.9185 46.7613 59.065 46.9906 60.116C47.0097 60.1733 47.0289 60.2306 47.0671 60.2688L47.1244 60.3453L53.8508 68.6957L53.9463 68.8103C54.1756 69.0779 54.5769 69.1352 54.8636 68.925C55.1502 68.7148 55.2266 68.2944 54.9973 67.9887L48.6722 59.3707Z" fill="#FDFFFC"/>
<path d="M62.9848 42.2308L53.201 39.7467L44.1815 32.9441C43.9904 32.8103 43.7802 32.7339 43.5318 32.7339H43.3407H40.952C40.1112 32.753 39.2513 32.7721 38.4105 32.8485C38.0475 32.8676 37.6653 32.9059 37.2831 32.9441C37.3022 33.7657 37.3213 34.6638 37.3022 35.6575C37.3595 35.6575 37.4169 35.6384 37.4742 35.6384C37.8564 35.5811 38.2576 35.5046 38.6589 35.4855C39.4424 35.39 40.2641 35.3326 41.0667 35.2753L43.1496 35.1607L52.2646 41.39L52.3028 41.4092C52.3984 41.4665 52.4939 41.5047 52.6086 41.5429L62.6982 43.6257C63.0612 43.7022 63.4434 43.4729 63.539 43.1098C63.5963 42.7085 63.367 42.3264 62.9848 42.2308Z" fill="#FDFFFC"/>
<path d="M11.3329 41.4092L11.3711 41.39L20.4861 35.1607L22.569 35.2753C23.3716 35.3326 24.1742 35.39 24.9767 35.4855C25.378 35.5237 25.7602 35.5811 26.1615 35.6384C26.2188 35.6575 26.2762 35.6575 26.3335 35.6575C26.3144 34.6638 26.3335 33.7657 26.3526 32.9441C25.9704 32.9059 25.5882 32.8676 25.2252 32.8485C24.3653 32.7912 23.5245 32.753 22.6837 32.7339H20.295H20.1039C19.8746 32.7339 19.6453 32.8103 19.4542 32.9441L10.4348 39.7467L0.650879 42.2308C0.287807 42.3264 0.0584893 42.6894 0.134926 43.0716C0.211362 43.4538 0.593548 43.7022 0.97573 43.6257L11.0653 41.5429C11.1418 41.5047 11.2564 41.4665 11.3329 41.4092Z" fill="#FDFFFC"/>
<path d="M27.5184 42.7648C27.1935 42.0195 26.8878 41.1406 26.6776 40.0896L22.8558 42.4208C22.3208 42.7457 21.7857 43.0323 21.2698 43.4336L19.7028 44.561L16.6071 46.8349C16.3778 47.0069 16.2249 47.2553 16.2058 47.561V47.5992L15.6708 53.6375L15.3459 56.6376C15.2504 57.6312 15.0593 58.4528 14.9446 59.3701L8.58132 67.9689C8.37112 68.2555 8.42844 68.6568 8.69597 68.8861C8.98261 69.1154 9.40299 69.0772 9.6323 68.7905L9.72785 68.6759L16.4543 60.3255L16.5116 60.249C16.5498 60.2108 16.5689 60.1535 16.588 60.0962C16.8173 59.0452 17.104 57.8987 17.2377 56.905L17.6772 53.8859L18.3843 48.3636L21.0404 46.5865L22.5309 45.5737C23.0087 45.2298 23.5819 44.9432 24.117 44.6374L27.5184 42.7648Z" fill="#FDFFFC"/>
<path d="M31.7989 65.7719C37.2641 64.1286 38.9648 60.1731 38.9648 56.3514C38.9648 47.7717 34.5697 48.173 33.041 44.7335C33.8053 43.7207 35.4869 41.6761 35.6589 37.434C36.1749 23.8097 33.2321 25.9307 32.9454 22.7014C32.869 21.8224 32.8499 21.23 32.8308 20.7905C35.5634 20.7905 37.3787 20.0071 36.729 14.9433C36.366 12.1917 33.9773 9.11523 31.8371 9.11523C29.6778 9.11523 27.2892 12.2299 26.9452 14.9433C26.2764 19.988 28.0917 20.7905 30.8434 20.7905C30.8243 21.2109 30.8052 21.8033 30.7288 22.7014C30.4421 25.9307 27.4993 23.8097 28.0153 37.434C28.1682 41.657 29.8689 43.7207 30.6332 44.7335C29.1045 48.1348 24.7094 47.7717 24.7094 56.3514C24.6521 60.1731 26.3528 64.1286 31.7989 65.7719Z" fill="#FDFFFC"/>
</svg>
